<svg xmlns="http://www.w3.org/2000/svg" viewBox="0 0 483.82 238.25"><defs><style>.cls-1,.cls-10,.cls-9{isolation:isolate;}.cls-2{fill:#711f60;}.cls-3{fill:#e23c92;}.cls-4{fill:#43b883;}.cls-5{fill:#256448;}.cls-6{fill:#19222b;}.cls-7{fill:#364a5e;}.cls-8{mix-blend-mode:darken;}.cls-9{fill:#3b0f2f;}.cls-10,.cls-9{opacity:0.95;}.cls-10{fill:#ed3a95;}.cls-11{fill:#371b2a;}</style></defs><g class="cls-1"><g id="Layer_1" data-name="Layer 1"><path class="cls-2" d="M196.65,186.24h-.73c-5.78,5.49-13.3,8.24-22.71,8.24-8.68,0-15.19-2.6-19.67-7.67s-6.65-11.57-6.65-19.24c0-12.15,3.47-22,10.56-29.36s15.47-11.14,25.45-11.14c8.1,0,14.18,2.61,18.09,7.67l.86-.44,6.22-43.83h18.38L212.12,193.32H197.66Zm-4.2-13.17c3.62-4.19,5.5-9.55,5.5-16.06,0-8.67-4.78-14.6-13.45-14.6-11.14,0-18.38,9.54-18.38,22.27,0,9.12,4.49,14.76,13.17,14.76C184.5,179.44,188.84,177.27,192.45,173.07Z"/><path class="cls-2" d="M284.31,146c0,6.8-3.33,12.3-10.13,16.2s-15,5.93-25,5.93a74.71,74.71,0,0,1-7.82-.43c-1.88,9.26,4.34,13.45,14.61,13.45a39.91,39.91,0,0,0,24-7.95c-1,6.51-1.59,11.42-2,14.75-7.38,4.49-16.35,6.8-26.76,6.8-19.82,0-29.36-11.57-29.36-27.92a40.89,40.89,0,0,1,10.41-28.06c6.94-8,16.06-11.86,27.48-11.86C274.76,126.93,284.31,134.88,284.31,146Zm-42.39,11.57a21.07,21.07,0,0,0,4.92.44,36.5,36.5,0,0,0,13.45-2.32c4.2-1.59,6.22-4.19,6.22-7.52,0-4.05-2.75-7.09-8.39-7.09C249.88,141.1,243.66,147.61,241.92,157.59Z"/><path class="cls-2" d="M309.33,137.78l.58.29c6.22-7.38,13.45-11.14,21.7-11.14,9.54,0,15.48,4.19,17.93,12.58,5.93-8.39,13.46-12.58,22.42-12.58,12.88,0,19.82,7.08,19.82,19.24a59.08,59.08,0,0,1-.86,8.53c-.73,4.77-1.74,11.43-2.9,20.25l-2.46,18.37H366.47c.72-4.34,1.59-10.7,2.75-19.09l2.6-18.81c0-.72.14-2.17.14-2.6,0-6.8-2.74-10.13-8.24-10.13-8.25,0-13.16,6.8-15,20.26l-4.2,30.37H325.39l5.2-37.32c1.31-8.82-1.3-13.31-7.66-13.31-8.68,0-13.89,6.8-15.77,20.55l-3.91,30.08H284.16l9-64.37h15.19Z"/><path class="cls-2" d="M465,155.42c0,11.29-3.62,20.69-11,28.21s-16.64,11.28-28.07,11.28c-19.53,0-30.66-11.28-30.66-28.49,0-11.14,3.61-20.4,11-28.07s16.92-11.42,28.5-11.42C454,126.93,465,138.21,465,155.42Zm-45.13-6.36a25.09,25.09,0,0,0-5.07,15.77c0,8.82,4.49,14.61,13,14.61a16.63,16.63,0,0,0,13.31-6.37,23.54,23.54,0,0,0,5.35-15.62c0-8.82-4.77-14.9-13.3-14.9A16,16,0,0,0,419.85,149.06Z"/><path class="cls-3" d="M189.65,179.24h-.73c-5.78,5.49-13.3,8.24-22.71,8.24-8.68,0-15.19-2.6-19.67-7.67s-6.65-11.57-6.65-19.24c0-12.15,3.47-22,10.56-29.36s15.47-11.14,25.45-11.14c8.1,0,14.18,2.61,18.09,7.67l.86-.44,6.22-43.83h18.38L205.12,186.32H190.66Zm-4.2-13.17c3.62-4.19,5.5-9.55,5.5-16.06,0-8.67-4.78-14.6-13.45-14.6-11.14,0-18.38,9.54-18.38,22.27,0,9.12,4.49,14.76,13.17,14.76C177.5,172.44,181.84,170.27,185.45,166.07Z"/><path class="cls-3" d="M277.31,139c0,6.8-3.33,12.3-10.13,16.2s-15,5.93-25,5.93a74.71,74.71,0,0,1-7.82-.43c-1.88,9.26,4.34,13.45,14.61,13.45a39.91,39.91,0,0,0,24-7.95c-1,6.51-1.59,11.42-2,14.75-7.38,4.49-16.35,6.8-26.76,6.8-19.82,0-29.36-11.57-29.36-27.92a40.89,40.89,0,0,1,10.41-28.06c6.94-8,16.06-11.86,27.48-11.86C267.76,119.93,277.31,127.88,277.31,139Zm-42.39,11.57a21.07,21.07,0,0,0,4.92.44,36.5,36.5,0,0,0,13.45-2.32c4.2-1.59,6.22-4.19,6.22-7.52,0-4.05-2.75-7.09-8.39-7.09C242.88,134.1,236.66,140.61,234.92,150.59Z"/><path class="cls-3" d="M302.33,130.78l.58.29c6.22-7.38,13.45-11.14,21.7-11.14,9.54,0,15.48,4.19,17.93,12.58,5.93-8.39,13.46-12.58,22.42-12.58,12.88,0,19.82,7.08,19.82,19.24a59.08,59.08,0,0,1-.86,8.53c-.73,4.77-1.74,11.43-2.9,20.25l-2.46,18.37H359.47c.72-4.34,1.59-10.7,2.75-19.09l2.6-18.81c0-.72.14-2.17.14-2.6,0-6.8-2.74-10.13-8.24-10.13-8.25,0-13.16,6.8-15,20.26l-4.2,30.37H318.39l5.2-37.32c1.31-8.82-1.3-13.31-7.66-13.31-8.68,0-13.89,6.8-15.77,20.55l-3.91,30.08H277.16l9-64.37h15.19Z"/><path class="cls-3" d="M458,148.42c0,11.29-3.62,20.69-11,28.21s-16.64,11.28-28.07,11.28c-19.53,0-30.66-11.28-30.66-28.49,0-11.14,3.61-20.4,11-28.07s16.92-11.42,28.5-11.42C447,119.93,458,131.21,458,148.42Zm-45.13-6.36a25.09,25.09,0,0,0-5.07,15.77c0,8.82,4.49,14.61,13,14.61a16.63,16.63,0,0,0,13.31-6.37,23.54,23.54,0,0,0,5.35-15.62c0-8.82-4.77-14.9-13.3-14.9A16,16,0,0,0,412.85,142.06Z"/><g id="logo-2" data-name="logo"><path class="cls-4" d="M229.08,32.39h37.21L33.75,192.88,80.22,32.39h71.17L140.91,69.61l53.74-37.22Z"/><path class="cls-5" d="M80.22,32.39,33.75,192.88,266.29,32.39H229.08L89.55,128.68,117,32.39Z"/><path class="cls-6" d="M117,32.39,89.15,129.15,229.08,32.39H194.65L140.91,69.61l10.48-37.22Z"/><path class="cls-4" d="M224.71,23.94h37.21L29.38,184.42,75.85,23.94H147L136.54,61.15l53.74-37.21Z"/><path class="cls-4" d="M75.85,23.94,29.38,184.42,261.92,23.94H224.71L85.18,120.23,112.6,23.94Z"/><path class="cls-7" d="M112.6,23.94,84.78,120.7,224.71,23.94H190.28L136.54,61.15,147,23.94Z"/><g class="cls-8"><path id="path2987" class="cls-9" d="M45.11,133.28c-.1-.16,10-35.12,10.3-35.55s13.5-.28,13.68,0c.07.11-1.44,5.59-3.36,12.18S62.29,122,62.35,122.16c.15.39,4.47.4,4.77,0S75.74,93,75.59,92.78s-4-.2-9.3-.2c-5.05,0-9.23-.08-9.29-.18s1.88-6.94,4.31-15.21l4.43-15L82,62.09c8.94,0,16.34,0,16.43.12s-2.55,9.51-5.88,20.94-7.94,27.23-10.24,35.14S78,132.84,77.93,133.05c-.19.37-1.21.39-16.46.39-8.95,0-16.31-.07-16.36-.16ZM79,81.29a74.7,74.7,0,0,0,2.3-7.89c0-.31-.33-.36-2.33-.36-1.6,0-2.39.09-2.54.28a76.86,76.86,0,0,0-2.31,7.89c0,.31.33.37,2.33.37,1.6,0,2.4-.09,2.55-.29ZM93.39,92.41c-.06-.09,1.88-6.94,4.32-15.21l4.42-15.05,6.71-.06a63.33,63.33,0,0,1,6.9.14,92.37,92.37,0,0,1-2.51,9.4c-1.49,5.06-2.71,9.37-2.71,9.58s.29.37,2.53.32l2.53-.07,2.8-9.44c1.55-5.19,2.89-9.56,3-9.71.21-.31,13.3-.4,13.48-.1.05.09-1.89,6.94-4.33,15.21l-4.42,15-16.31,0c-9,0-16.35,0-16.4-.11Zm35.92,0c-.05-.09,1.89-6.94,4.33-15.21l4.42-15.05,16.25-.06c8.94,0,16.33,0,16.41.12s-1.83,6.94-4.27,15.21l-4.42,15-6.71,0a61.93,61.93,0,0,1-6.9-.13,91.6,91.6,0,0,1,2.51-9.4c1.49-5.07,2.71-9.38,2.71-9.58s-.29-.38-2.53-.32l-2.53.06-2.8,9.45c-1.55,5.19-2.89,9.56-3,9.71s-13.3.4-13.48.1Zm40.64-10c-.95-.75-.95-1.58,0-5.06.65-2.4,1-3.27,1.46-3.74a2,2,0,0,1,3.46,1c.21,1.17-1.4,6.82-2.18,7.6a2,2,0,0,1-2.74.16Z"/><path id="path2989-1" class="cls-9" d="M98.67,95.84c-2.15,0-3.41.17-4.8,1.62a8.64,8.64,0,0,0-1.72,8.08c1.07,2.8,4.12,3.74,5.44,4.34-3.3-2.67-2.1-8.06,1.34-10.59h2.81c6.31,0,5.91-.59,6,3.79h0c.12-6.18,0-7.1-5.52-7.22-1.44,0-2.6,0-3.58,0Zm10.89,12.33c-.64,4-3.09,4.48-7.82,4.46H87.5l-1.32,4.47h14.65c5.32-.12,7.94-4.47,8.73-8.93Z"/></g><path id="path2987-2" data-name="path2987" class="cls-10" d="M39,122.22c-.1-.16,10-35.11,10.3-35.55.17-.28,13.5-.28,13.68,0,.07.12-1.44,5.6-3.36,12.18S56.19,111,56.25,111.1c.15.4,4.47.4,4.77,0S69.64,82,69.5,81.72s-4-.2-9.31-.2c-5,0-9.23-.08-9.29-.18s1.88-6.94,4.31-15.21l4.43-15L75.9,51c8.94,0,16.34,0,16.43.11s-2.55,9.52-5.88,20.94L76.21,107.23c-2.3,7.9-4.27,14.55-4.38,14.76-.19.37-1.2.4-16.46.4-8.94,0-16.31-.08-16.36-.17Zm33.92-52a76.11,76.11,0,0,0,2.3-7.89c0-.31-.33-.37-2.33-.37-1.6,0-2.39.09-2.54.29a76.67,76.67,0,0,0-2.31,7.88c0,.32.33.37,2.33.37,1.6,0,2.4-.09,2.55-.28ZM87.29,81.35c-.06-.09,1.89-6.94,4.32-15.21l4.43-15,6.7-.06a63.7,63.7,0,0,1,6.91.14,96.78,96.78,0,0,1-2.52,9.4c-1.49,5.06-2.7,9.38-2.7,9.58s.28.37,2.52.32l2.53-.07,2.8-9.44c1.55-5.19,2.89-9.56,3-9.71s13.3-.4,13.48-.1c.06.09-1.89,6.94-4.32,15.21l-4.43,15-16.31.06c-9,0-16.35,0-16.4-.12Zm35.92,0c0-.09,1.89-6.94,4.33-15.21l4.42-15L148.21,51c8.94,0,16.33,0,16.42.11s-1.84,6.94-4.27,15.21l-4.43,15-6.71.06a63.45,63.45,0,0,1-6.9-.14,95.66,95.66,0,0,1,2.51-9.4c1.49-5.06,2.71-9.38,2.71-9.58S147.25,62,145,62l-2.52.07-2.81,9.44c-1.54,5.19-2.89,9.56-3,9.71s-13.3.4-13.48.1Zm40.65-9.94c-1-.75-1-1.59,0-5.06.65-2.41,1-3.27,1.46-3.75a2,2,0,0,1,3.46,1c.22,1.17-1.4,6.82-2.17,7.61a2,2,0,0,1-2.74.16Z"/><path id="path2989-1-2" data-name="path2989-1" class="cls-10" d="M92.57,84.78c-2.15,0-3.41.17-4.79,1.62a8.65,8.65,0,0,0-1.73,8.08c1.07,2.8,4.12,3.74,5.45,4.34-3.31-2.66-2.11-8.06,1.33-10.59h2.81c6.31,0,5.92-.58,6,3.79h0c.12-6.18,0-7.1-5.51-7.22-1.45,0-2.61,0-3.59,0Zm10.89,12.33c-.63,4-3.09,4.48-7.82,4.47H81.4L80.08,106H94.74c5.32-.12,7.93-4.47,8.72-8.93Z"/></g><path class="cls-11" d="M193.7,72.32H446.31c.6,0,1.2-.88,1.32-1.95l.42-3.48c.13-1.08-.26-2-.86-2H194.58c-.6,0-1.19.87-1.32,2l-.42,3.48C192.72,71.44,193.1,72.32,193.7,72.32Z"/><path class="cls-3" d="M192.22,68.63H444.83c.61,0,1.2-.88,1.33-1.95l.41-3.48c.13-1.08-.26-2-.86-2H193.1c-.6,0-1.19.87-1.32,2l-.41,3.48C191.24,67.75,191.62,68.63,192.22,68.63Z"/></g></g></svg>