<svg id="Layer_1" data-name="Layer 1" xmlns="http://www.w3.org/2000/svg" xmlns:xlink="http://www.w3.org/1999/xlink" viewBox="0 0 566.93 242.6"><defs><style>.cls-1{fill:url(#linear-gradient);}.cls-2{fill:url(#linear-gradient-2);}.cls-3{fill:url(#linear-gradient-3);}.cls-4{fill:url(#Orange_Yellow);}.cls-5{fill:url(#Orange_Yellow-2);}.cls-6{fill:#231f20;}</style><linearGradient id="linear-gradient" x1="568.99" y1="33.33" x2="24.83" y2="170.99" gradientUnits="userSpaceOnUse"><stop offset="0" stop-color="#fff33b"/><stop offset="0.3" stop-color="#fff13b"/><stop offset="0.41" stop-color="#feea3b"/><stop offset="0.49" stop-color="#fddf3c"/><stop offset="0.55" stop-color="#face3d"/><stop offset="0.6" stop-color="#f8b83d"/><stop offset="0.65" stop-color="#f59d3e"/><stop offset="0.67" stop-color="#f3903f"/><stop offset="0.89" stop-color="#ed683c"/></linearGradient><linearGradient id="linear-gradient-2" x1="570.33" y1="38.63" x2="26.17" y2="176.3" gradientUnits="userSpaceOnUse"><stop offset="0" stop-color="#fff33b"/><stop offset="0.04" stop-color="#fee72e"/><stop offset="0.12" stop-color="#fed51b"/><stop offset="0.2" stop-color="#fdca10"/><stop offset="0.28" stop-color="#fdc70c"/><stop offset="0.67" stop-color="#f3903f"/><stop offset="0.89" stop-color="#ed683c"/></linearGradient><linearGradient id="linear-gradient-3" x1="571.73" y1="44.17" x2="27.57" y2="181.84" gradientUnits="userSpaceOnUse"><stop offset="0" stop-color="#fff33b"/><stop offset="0.04" stop-color="#fee72e"/><stop offset="0.12" stop-color="#fed51b"/><stop offset="0.2" stop-color="#fdca10"/><stop offset="0.28" stop-color="#fdc70c"/><stop offset="0.51" stop-color="#f6a036"/><stop offset="0.67" stop-color="#f3903f"/><stop offset="0.89" stop-color="#ed683c"/><stop offset="1" stop-color="#e93e3a"/></linearGradient><linearGradient id="Orange_Yellow" x1="633.53" y1="33.45" x2="89.37" y2="171.11" gradientUnits="userSpaceOnUse"><stop offset="0" stop-color="#fff33b"/><stop offset="0.04" stop-color="#fee72e"/><stop offset="0.12" stop-color="#fed51b"/><stop offset="0.2" stop-color="#fdca10"/><stop offset="0.28" stop-color="#fdc70c"/><stop offset="0.67" stop-color="#f3903f"/><stop offset="0.89" stop-color="#ed683c"/><stop offset="1" stop-color="#e93e3a"/></linearGradient><linearGradient id="Orange_Yellow-2" x1="574.12" y1="53.6" x2="29.95" y2="191.26" xlink:href="#Orange_Yellow"/></defs><path class="cls-1" d="M139.81,165.1l-4.66-37.79q-1.2-10.2-2.34-19.37t-2.25-18.12L91.67,97.73l-4.13,15.35-3.72,13.83-7.4,27.49-2.3.46-8.3-24.37q-2.07-6.2-4.13-12.27t-4.61-13.45l-37.2,7.56q-1.23,9.66-2.39,19.22T15,151.82l-4.87,39.57Q8.87,202,7.7,211.18T5.49,228.92l34.6-7q1-8.65,2-16.42t1.79-14.71l2.41-19.86,2.45-.5,6.32,19.28,3,9.27q1.5,4.63,3,9.19T64,217l24.64-5q1.65-7.19,3.4-14.87t3.6-15.8l4.87-21.48,2.45-.49,2.16,18.84c.52,4.36,1,9,1.61,14s1.16,10.22,1.82,15.78l35.66-7.26q-1.1-8.53-2.1-17T139.81,165.1Z"/><path class="cls-2" d="M205.53,157.47,193.08,160c0-3.76,0-7.79,0-12.13v-.32l10-2,15.84-3.23,13.4-2.72.15-27.45-13.05,2.65-16.19,3.3-9.92,2q.06-6.59.09-12.29l10-2,17.18-3.5,13.74-2.79.12-30.79L157,84.43q-.09,9.36-.16,18t-.21,20.13l-.35,39.05q-.1,11.18-.19,19.44T156,198.32l78.84-16,.26-30.82-14,2.85Z"/><path class="cls-3" d="M343.74,122.18,332.92,84.69q-2.81-9.87-5.08-17.74t-4.71-16.3L275.21,60.4q-2.47,9.34-4.94,18.38t-5.33,19.66l-11.08,41.15q-2.64,9.78-5.52,20.49t-5.57,20.58l39.8-8.1q1.57-8.28,3.24-17.15l.39-2.08,27.23-5.53c.13.63.26,1.26.4,1.91q1.68,8.1,3.33,15.82l36.9-7.51q-2.46-8.51-5.17-18ZM300.82,87.55l6.88,32.72-16,3.24,6.63-35.46Z"/><path class="cls-4" d="M429,47.21q-.09,8.7-.18,20l-.11,13.57-2.6.53L415,64l-8.65-13.51q-4.44-6.94-9.55-14.83l-32.61,6.63q-.09,9.34-.19,18t-.17,20.12l-.33,39.13q-.13,11.1-.2,19.41t-.17,17.17l35.05-7.13q.08-9,.16-17.25t.18-19.49l.14-15,2.44-.5,11.67,17.4,9.68,14.45q4.51,6.74,9.1,13.61l31.69-6.45q.07-9,.16-17.24t.18-19.49l.36-39q.09-11.34.19-20t.18-18.13l-35.06,7.13Q429.14,38.5,429,47.21Z"/><path class="cls-5" d="M559.12,70.52a23.56,23.56,0,0,0-10.38-9.88q-7.23-3.8-19.48-6a44.28,44.28,0,0,1-8.57-2.36,13.6,13.6,0,0,1-4.8-3.05,5.36,5.36,0,0,1-.47-7,8.2,8.2,0,0,1,3-2.36,18.45,18.45,0,0,1,4.52-1.48,43.4,43.4,0,0,1,8.37-.59,71.26,71.26,0,0,1,11.54,1.08,44.35,44.35,0,0,1,11.35,3.51l3-31.53a48.79,48.79,0,0,0-9.29-2.22,96,96,0,0,0-11.47-.93A121.29,121.29,0,0,0,524,8.05a99.36,99.36,0,0,0-12.29,1.7q-13.47,2.75-21.58,7.9a30.83,30.83,0,0,0-11.77,12.87,42.32,42.32,0,0,0-3.68,18.17q0,11.24,3.76,17.88a24.61,24.61,0,0,0,10.65,10.07,59.42,59.42,0,0,0,16.06,5.07,87.66,87.66,0,0,1,9.39,2.11,18.9,18.9,0,0,1,6.06,2.75,4.62,4.62,0,0,1,2.1,3.84,6.68,6.68,0,0,1-.82,3.24,6.5,6.5,0,0,1-2.69,2.42,19.87,19.87,0,0,1-5.35,1.72,49.73,49.73,0,0,1-11.33.91,66.13,66.13,0,0,1-12.22-1.5,65.24,65.24,0,0,1-11.76-3.7l-2.43,32.69A42.53,42.53,0,0,0,488,128.6a113.45,113.45,0,0,0,16.37.14,122.18,122.18,0,0,0,17.09-2.2q14.77-3,23.71-8.06a31.18,31.18,0,0,0,13-13q4-8,4.11-19.76Q562.27,76.62,559.12,70.52Z"/><path class="cls-6" d="M245.34,196.34v-2.07l12.86-2.61v2.06l-3.83.78-3.77.77-.94.19ZM255,212a5.83,5.83,0,0,1-3.22-.14,4,4,0,0,1-2.11-1.89,7.33,7.33,0,0,1-.75-3.55c0-1.18,0-2.33,0-3.44s0-2.17,0-3.18,0-2,0-2.88,0-1.78,0-2.58c0-1.29,0-2.49,0-3.6s0-2.27,0-3.48l2.41-1.09c0,.94,0,1.8,0,2.59s0,1.59,0,2.4,0,1.7,0,2.69l-.11,11.81c0,1.72.32,2.88,1,3.5a3.07,3.07,0,0,0,2.8.56,5.08,5.08,0,0,0,1.51-.59A6,6,0,0,0,258,208l.29,2.37a5,5,0,0,1-.82.64,8.36,8.36,0,0,1-1.16.59A6.61,6.61,0,0,1,255,212Z"/><path class="cls-6" d="M262.86,210c0-1.44,0-2.83.05-4.18s0-2.79,0-4.35l.09-10.72c0-1.63,0-3.21.06-4.75s0-3.05,0-4.52l2.42-.86c0,1.59,0,3.16-.05,4.72s0,3.2,0,4.91l0,3.12.27-.05a13.22,13.22,0,0,1,1.31-1.87,10.27,10.27,0,0,1,2-1.82,7,7,0,0,1,2.7-1.13c2.07-.43,3.64-.07,4.7,1s1.59,2.86,1.55,5.2c0,.55,0,1.11,0,1.68s0,1.23,0,2c0,1.6,0,3.06,0,4.4s0,2.72,0,4.16l-2.41.49c0-1.46,0-2.85,0-4.17s0-2.76,0-4.29l0-3.33a6.09,6.09,0,0,0-1-3.9c-.65-.82-1.77-1.07-3.35-.75a5.81,5.81,0,0,0-2.36,1.05,9.11,9.11,0,0,0-1.88,1.89,23.41,23.41,0,0,0-1.57,2.45l0,4.69q0,2.26,0,4.26c0,1.33,0,2.72-.05,4.16Z"/><path class="cls-6" d="M293.08,204.24a9.47,9.47,0,0,1-5.37-.28,7.05,7.05,0,0,1-3.59-3.1,10.54,10.54,0,0,1-1.25-5.5,12.85,12.85,0,0,1,1-5,10,10,0,0,1,2.71-3.72,9.18,9.18,0,0,1,4.13-2,7.35,7.35,0,0,1,4.4.27,5.56,5.56,0,0,1,2.79,2.51,8.11,8.11,0,0,1,.9,4.1c0,.33,0,.69-.07,1.07s-.08.74-.12,1l-2.16-.77c0-.2,0-.39.05-.59a5.62,5.62,0,0,0,0-.57,5.41,5.41,0,0,0-1.44-4.11,4.17,4.17,0,0,0-4-.9,6.64,6.64,0,0,0-2.91,1.37,7.28,7.28,0,0,0-2.06,2.8,10.94,10.94,0,0,0-.79,4.28v.37a8,8,0,0,0,.95,4.08,5,5,0,0,0,2.66,2.24A7.36,7.36,0,0,0,293,202a12.69,12.69,0,0,0,1.9-.55,14,14,0,0,0,1.84-.86,10.2,10.2,0,0,0,1.61-1.12l.14,2.44a5.78,5.78,0,0,1-1.21.82,14.59,14.59,0,0,1-1.92.86A15.57,15.57,0,0,1,293.08,204.24Zm-9.2-7.61-.06-1.87L297,192l1.56.21v1.44Z"/><path class="cls-6" d="M311.11,200.18c0-1.44,0-2.84,0-4.18s0-2.81,0-4.39l.09-10.67c0-1.62,0-3.21.05-4.76s0-3.06,0-4.51l2.41-.86c0,1.59,0,3.17,0,4.73s0,3.19,0,4.89l-.1,10.71c0,1.61,0,3.07,0,4.4s0,2.71,0,4.15Z"/><path class="cls-6" d="M325.5,197.64a5.78,5.78,0,0,1-3.28-.17,4.51,4.51,0,0,1-2.24-1.82,5.42,5.42,0,0,1-.78-3.07,5.12,5.12,0,0,1,.5-2.34,5.53,5.53,0,0,1,1.31-1.68,10.38,10.38,0,0,1,1.86-1.24,23,23,0,0,1,2.14-1l6.29-2.54a5.36,5.36,0,0,0-.53-2.84,2.78,2.78,0,0,0-1.73-1.34,6,6,0,0,0-2.71,0,12.21,12.21,0,0,0-1.3.35,15.16,15.16,0,0,0-1.48.59c-.51.23-1.05.51-1.61.82s-1.13.68-1.73,1.08l-.07-2.47c.38-.24.81-.48,1.28-.74s1-.51,1.53-.75,1.11-.46,1.7-.67a15.13,15.13,0,0,1,1.74-.48,7.46,7.46,0,0,1,4,.11,4.43,4.43,0,0,1,2.43,2.09,7.36,7.36,0,0,1,.8,3.67c0,.58,0,1.21,0,1.9s0,1.44,0,2.29l0,2.52c0,.83,0,1.71,0,2.65s0,1.95,0,3l-2.22.45,0-2.72-.3.06a9.16,9.16,0,0,1-1.37,2,7.47,7.47,0,0,1-4.07,2.26Zm.28-2.23a6.41,6.41,0,0,0,2.08-.84,7.3,7.3,0,0,0,1.84-1.74,11.49,11.49,0,0,0,1.48-2.76l0-4.58c-.22.14-.5.32-.84.52s-.86.46-1.55.78L326,188.08a16.38,16.38,0,0,0-2.14,1,5.15,5.15,0,0,0-1.56,1.28,2.92,2.92,0,0,0-.58,1.85,3,3,0,0,0,1.16,2.78A3.84,3.84,0,0,0,325.78,195.41Z"/><path class="cls-6" d="M339.88,194.33c0-1.44,0-2.84.05-4.18s0-2.81,0-4.38l0-2c0-1.22,0-2.59,0-4.1s0-3.08,0-4.71l2.16-.59,0,3.45.26-.05a11.88,11.88,0,0,1,1.35-1.94,10.92,10.92,0,0,1,2.09-1.89,7.41,7.41,0,0,1,2.78-1.17q3.11-.63,4.7,1.06c1.07,1.12,1.59,2.86,1.56,5.2,0,.54,0,1.1,0,1.68s0,1.22,0,2q0,2.35,0,4.38c0,1.35,0,2.74,0,4.18l-2.41.49c0-1.45,0-2.84,0-4.17s0-2.75,0-4.28l0-3.34a6.09,6.09,0,0,0-1-3.9c-.65-.82-1.77-1.07-3.35-.75a5.81,5.81,0,0,0-2.36,1,9.16,9.16,0,0,0-1.88,1.9,23.24,23.24,0,0,0-1.57,2.44l0,4.62c0,1.56,0,3,0,4.33s0,2.73,0,4.17Z"/><path class="cls-6" d="M367.78,196.52a12.64,12.64,0,0,1-2.91.25,8.09,8.09,0,0,1-2.56-.49A4.15,4.15,0,0,1,360.5,195a3.46,3.46,0,0,1-.64-2.2,3.79,3.79,0,0,1,.69-2.23,6.2,6.2,0,0,1,1.56-1.51,9,9,0,0,1,1.56-.86l0-.21a2.9,2.9,0,0,1-.83-.34,2.6,2.6,0,0,1-.85-.81,2.46,2.46,0,0,1-.36-1.45,3,3,0,0,1,.35-1.39,3.6,3.6,0,0,1,.95-1.08,7.49,7.49,0,0,1,1.39-.82l0-.24a8,8,0,0,1-1.32-.54,6.18,6.18,0,0,1-1.46-1.08,5.37,5.37,0,0,1-1.16-1.72,5.84,5.84,0,0,1-.46-2.44,6.38,6.38,0,0,1,.79-3.18,6.65,6.65,0,0,1,2.21-2.3,9.63,9.63,0,0,1,3.29-1.29,10.79,10.79,0,0,1,1.72-.24l1.4-.08a12.6,12.6,0,0,0,1.65-.24l6.44-1.31,0,2-3.6.73-3.54.72.47-1a5.28,5.28,0,0,1,3.47,5.09,6.35,6.35,0,0,1-.79,3.28,7,7,0,0,1-2.19,2.27A13.84,13.84,0,0,1,368,182a18.89,18.89,0,0,0-3.13,1.36,1.77,1.77,0,0,0-1.05,1.44,1.27,1.27,0,0,0,.34.86,1.82,1.82,0,0,0,1.1.47,6,6,0,0,0,2-.14l1.4-.28a11,11,0,0,1,4.16-.19,4.16,4.16,0,0,1,2.49,1.31,3.7,3.7,0,0,1,.8,2.52,5,5,0,0,1-.7,2.57,7.57,7.57,0,0,1-1.88,2.1,12.21,12.21,0,0,1-2.66,1.55A16.1,16.1,0,0,1,367.78,196.52Zm-.19-2.11a11.85,11.85,0,0,0,3.51-1.22,6.84,6.84,0,0,0,2-1.7,3.07,3.07,0,0,0,.68-1.69,2.07,2.07,0,0,0-.44-1.41,2.49,2.49,0,0,0-1.68-.74,11.44,11.44,0,0,0-3.43.3l-.76.16a12.82,12.82,0,0,0-2.5.82A6.4,6.4,0,0,0,363,190.3a2.72,2.72,0,0,0-.83,1.92,2.1,2.1,0,0,0,.48,1.45,2.77,2.77,0,0,0,1.32.75,6.54,6.54,0,0,0,1.8.2A9.65,9.65,0,0,0,367.59,194.41Zm-.92-14.07c.59-.2,1.18-.43,1.78-.69a7.24,7.24,0,0,0,1.65-1,4.45,4.45,0,0,0,1.22-1.43,4.18,4.18,0,0,0,.47-2.08,3.52,3.52,0,0,0-.72-2.36,3.92,3.92,0,0,0-1.95-1.32,5.16,5.16,0,0,0-2.57-.1,7.21,7.21,0,0,0-2.31.87,4.37,4.37,0,0,0-1.54,1.54,4.43,4.43,0,0,0-.55,2.24,4,4,0,0,0,.68,2.36,4.17,4.17,0,0,0,1.7,1.38A6.25,6.25,0,0,0,366.67,180.34Z"/><path class="cls-6" d="M387.28,185.1c-2.06.42-3.62.06-4.7-1.06s-1.59-2.87-1.56-5.22c0-.54,0-1.08,0-1.6s0-1.13,0-1.83c0-1.11,0-2.14,0-3.1s0-1.9,0-2.82,0-1.85,0-2.81l2.41-.59c0,1.43,0,2.83,0,4.22s0,2.86,0,4.41l0,3.26a6,6,0,0,0,1,3.89c.66.82,1.78,1.08,3.35.76a5.5,5.5,0,0,0,2.24-1,9.38,9.38,0,0,0,1.82-1.89,23.16,23.16,0,0,0,1.55-2.44l0-4.58c0-1.55,0-3,0-4.35s0-2.75,0-4.19l2.41-.49c0,1.44,0,2.85,0,4.22s0,2.88,0,4.53l0,2c0,1.58,0,3.05,0,4.39s0,2.72,0,4.17l-2.15.43,0-3.34-.26.06a12.32,12.32,0,0,1-1.35,1.94,10.43,10.43,0,0,1-2.06,1.9A7,7,0,0,1,387.28,185.1Z"/><path class="cls-6" d="M407.25,181a5.86,5.86,0,0,1-3.28-.17,4.58,4.58,0,0,1-2.24-1.83,5.49,5.49,0,0,1-.79-3.07,5.28,5.28,0,0,1,.51-2.34,5.49,5.49,0,0,1,1.31-1.67,9.91,9.91,0,0,1,1.86-1.25c.69-.36,1.4-.68,2.14-1l6.29-2.54a5.36,5.36,0,0,0-.53-2.84,2.77,2.77,0,0,0-1.73-1.33,5.87,5.87,0,0,0-2.71,0,12.41,12.41,0,0,0-1.3.36,12.84,12.84,0,0,0-1.48.58c-.52.23-1.05.51-1.61.82s-1.14.68-1.73,1.08l-.07-2.47c.38-.23.8-.48,1.28-.74s1-.51,1.53-.75,1.11-.46,1.7-.66a13.42,13.42,0,0,1,1.74-.49,7.31,7.31,0,0,1,4,.12,4.4,4.4,0,0,1,2.44,2.08,7.36,7.36,0,0,1,.8,3.67c0,.58,0,1.22,0,1.9s0,1.45,0,2.29l0,2.52c0,.83,0,1.71,0,2.65s0,1.95,0,3l-2.22.45,0-2.72-.3.07a9.35,9.35,0,0,1-1.37,1.95,7.86,7.86,0,0,1-1.81,1.44A7.7,7.7,0,0,1,407.25,181Zm.28-2.24a6.41,6.41,0,0,0,2.08-.84,6.78,6.78,0,0,0,1.83-1.74,10.83,10.83,0,0,0,1.48-2.76l.05-4.58c-.22.15-.5.32-.84.52s-.86.46-1.56.78-1.65.75-2.88,1.29a16.23,16.23,0,0,0-2.13,1,5,5,0,0,0-1.56,1.29,2.83,2.83,0,0,0-.58,1.85,3,3,0,0,0,1.16,2.78A3.88,3.88,0,0,0,407.53,178.78Z"/><path class="cls-6" d="M428.18,184.23a12.23,12.23,0,0,1-2.92.25,7.57,7.57,0,0,1-2.56-.49,4,4,0,0,1-1.8-1.3,3.41,3.41,0,0,1-.65-2.2,3.76,3.76,0,0,1,.69-2.23,6,6,0,0,1,1.56-1.51,9.17,9.17,0,0,1,1.56-.87l0-.2a3,3,0,0,1-.82-.34,2.47,2.47,0,0,1-.86-.82,2.41,2.41,0,0,1-.36-1.44,3.05,3.05,0,0,1,.35-1.4,3.6,3.6,0,0,1,.95-1.08,7,7,0,0,1,1.39-.81l-.05-.25a7.1,7.1,0,0,1-1.32-.53,6.18,6.18,0,0,1-1.46-1.08,5.48,5.48,0,0,1-1.16-1.72,5.89,5.89,0,0,1-.46-2.45,6.34,6.34,0,0,1,.79-3.17,6.56,6.56,0,0,1,2.21-2.3,9.44,9.44,0,0,1,3.29-1.29,12.48,12.48,0,0,1,1.72-.25l1.4-.08a12.17,12.17,0,0,0,1.65-.23l6.45-1.31,0,2-3.6.73-3.54.72.47-1a5.56,5.56,0,0,1,2.65,2.13,5.47,5.47,0,0,1,.82,3,6.35,6.35,0,0,1-.79,3.28,7,7,0,0,1-2.19,2.27,14.27,14.27,0,0,1-3.13,1.55,18.07,18.07,0,0,0-3.13,1.36,1.77,1.77,0,0,0-1.05,1.44,1.25,1.25,0,0,0,.35.86,1.79,1.79,0,0,0,1.09.47,6.26,6.26,0,0,0,2-.14l1.4-.29a10.83,10.83,0,0,1,4.17-.18,4.15,4.15,0,0,1,2.48,1.3,3.69,3.69,0,0,1,.8,2.52,4.9,4.9,0,0,1-.7,2.58,7.4,7.4,0,0,1-1.88,2.09,11.63,11.63,0,0,1-2.66,1.56A15.5,15.5,0,0,1,428.18,184.23Zm-.2-2.1a11.57,11.57,0,0,0,3.51-1.23,6.82,6.82,0,0,0,2-1.69,3.07,3.07,0,0,0,.68-1.69,2.07,2.07,0,0,0-.44-1.41,2.45,2.45,0,0,0-1.68-.74,11.46,11.46,0,0,0-3.43.3l-.76.16a12.19,12.19,0,0,0-2.5.82,6.35,6.35,0,0,0-2.05,1.37,2.71,2.71,0,0,0-.83,1.91,2.06,2.06,0,0,0,.48,1.45,2.7,2.7,0,0,0,1.32.76,7,7,0,0,0,1.8.2A10.5,10.5,0,0,0,428,182.13Zm-.92-14.08c.59-.19,1.18-.42,1.78-.68a8,8,0,0,0,1.66-1,4.38,4.38,0,0,0,1.21-1.42,4.32,4.32,0,0,0,.48-2.08,3.63,3.63,0,0,0-.73-2.37,3.92,3.92,0,0,0-1.95-1.31,5,5,0,0,0-2.57-.1,7.21,7.21,0,0,0-2.31.87,4.17,4.17,0,0,0-2.09,3.78,4,4,0,0,0,.68,2.35,4.27,4.27,0,0,0,1.7,1.39A6.07,6.07,0,0,0,427.06,168.05Z"/><path class="cls-6" d="M450.3,172.26a9.38,9.38,0,0,1-5.37-.28,7,7,0,0,1-3.59-3.1,10.54,10.54,0,0,1-1.25-5.5,12.63,12.63,0,0,1,1-5,10,10,0,0,1,2.71-3.73,9.18,9.18,0,0,1,4.13-2,7.43,7.43,0,0,1,4.4.27,5.56,5.56,0,0,1,2.79,2.51,8.14,8.14,0,0,1,.9,4.1c0,.33,0,.69-.07,1.08s-.08.74-.12,1l-2.16-.76c0-.2,0-.4.05-.6s0-.39,0-.57a5.42,5.42,0,0,0-1.44-4.11,4.17,4.17,0,0,0-4-.9,6.73,6.73,0,0,0-2.92,1.37,7.33,7.33,0,0,0-2.05,2.81,10.67,10.67,0,0,0-.79,4.27v.37a7.85,7.85,0,0,0,.95,4.08,5,5,0,0,0,2.66,2.24,7.35,7.35,0,0,0,4,.16,12.58,12.58,0,0,0,1.89-.55,13.53,13.53,0,0,0,1.85-.86,9.66,9.66,0,0,0,1.6-1.12l.15,2.45a6.2,6.2,0,0,1-1.21.82,14.63,14.63,0,0,1-1.92.85A15.57,15.57,0,0,1,450.3,172.26Zm-9.2-7.61-.07-1.87L454.25,160l1.56.2v1.44Z"/><path class="cls-6" d="M474.87,174.73A12.21,12.21,0,0,1,472,175a8.16,8.16,0,0,1-2.57-.49,4.06,4.06,0,0,1-1.8-1.31A3.4,3.4,0,0,1,467,171a3.69,3.69,0,0,1,.68-2.23,6.55,6.55,0,0,1,1.56-1.51,8.73,8.73,0,0,1,1.57-.86l0-.21a2.79,2.79,0,0,1-.83-.34A2.56,2.56,0,0,1,469,165a2.41,2.41,0,0,1-.36-1.44,2.94,2.94,0,0,1,.36-1.4,3.43,3.43,0,0,1,1-1.07,6.7,6.7,0,0,1,1.39-.82l-.05-.24a7.74,7.74,0,0,1-1.33-.54,6.13,6.13,0,0,1-1.45-1.08,5.55,5.55,0,0,1-1.17-1.72,5.84,5.84,0,0,1-.46-2.44,6.36,6.36,0,0,1,.8-3.18,6.62,6.62,0,0,1,2.2-2.3,9.51,9.51,0,0,1,3.29-1.29,11.05,11.05,0,0,1,1.73-.24l1.4-.08a12.25,12.25,0,0,0,1.64-.24l6.45-1.31,0,2-3.59.73-3.55.72.48-1a5.61,5.61,0,0,1,2.65,2.13,5.68,5.68,0,0,1,.82,3,6.35,6.35,0,0,1-.8,3.28,6.94,6.94,0,0,1-2.18,2.27,14.06,14.06,0,0,1-3.13,1.55,18.51,18.51,0,0,0-3.13,1.36,1.75,1.75,0,0,0-1,1.44,1.23,1.23,0,0,0,.34.86,1.79,1.79,0,0,0,1.1.47,5.92,5.92,0,0,0,2-.14l1.41-.28a11,11,0,0,1,4.16-.19,4.1,4.1,0,0,1,2.48,1.31,3.71,3.71,0,0,1,.81,2.52,5.08,5.08,0,0,1-.7,2.57,7.73,7.73,0,0,1-1.88,2.1,12.21,12.21,0,0,1-2.66,1.55A15.6,15.6,0,0,1,474.87,174.73Zm-.19-2.1a11.4,11.4,0,0,0,3.5-1.23,6.56,6.56,0,0,0,2-1.69,3,3,0,0,0,.69-1.69,2.07,2.07,0,0,0-.44-1.41,2.54,2.54,0,0,0-1.68-.74,11.41,11.41,0,0,0-3.43.3l-.77.16a13,13,0,0,0-2.5.82,6.46,6.46,0,0,0-2,1.37,2.68,2.68,0,0,0-.83,1.92,2,2,0,0,0,.48,1.45,2.67,2.67,0,0,0,1.32.75,6.47,6.47,0,0,0,1.79.2A9.75,9.75,0,0,0,474.68,172.63Zm-.92-14.07c.58-.2,1.17-.43,1.78-.69a7.88,7.88,0,0,0,1.65-1,4.55,4.55,0,0,0,1.22-1.43,4.29,4.29,0,0,0,.47-2.08,3.58,3.58,0,0,0-.72-2.36,3.92,3.92,0,0,0-2-1.32,5.16,5.16,0,0,0-2.57-.1,7.18,7.18,0,0,0-2.32.87,4.26,4.26,0,0,0-1.53,1.54,4.4,4.4,0,0,0-.56,2.24,4,4,0,0,0,.68,2.35,4.22,4.22,0,0,0,1.71,1.39A6.19,6.19,0,0,0,473.76,158.56Z"/><path class="cls-6" d="M493.27,163.52a5.83,5.83,0,0,1-3.27-.17,4.52,4.52,0,0,1-2.24-1.82,5.45,5.45,0,0,1-.79-3.07,5.25,5.25,0,0,1,.51-2.34,5.38,5.38,0,0,1,1.31-1.68,9.87,9.87,0,0,1,1.86-1.24,20.51,20.51,0,0,1,2.13-1l6.3-2.55a5.38,5.38,0,0,0-.53-2.84,2.77,2.77,0,0,0-1.73-1.33,5.75,5.75,0,0,0-2.71,0,10.34,10.34,0,0,0-1.31.35,14.84,14.84,0,0,0-1.47.58c-.52.24-1.06.51-1.61.83a20.11,20.11,0,0,0-1.73,1.08l-.08-2.48c.38-.23.81-.48,1.28-.74s1-.5,1.53-.75,1.12-.46,1.71-.66a11.94,11.94,0,0,1,1.74-.48,7.23,7.23,0,0,1,4,.11,4.47,4.47,0,0,1,2.44,2.08,7.38,7.38,0,0,1,.79,3.67c0,.59,0,1.22,0,1.9s0,1.45,0,2.29l0,2.52c0,.83,0,1.71,0,2.65s0,1.95,0,3l-2.22.46,0-2.72-.3.06a9.1,9.1,0,0,1-1.37,1.95,7.55,7.55,0,0,1-1.81,1.44A7.76,7.76,0,0,1,493.27,163.52Zm.29-2.24a6.36,6.36,0,0,0,2.07-.84,6.78,6.78,0,0,0,1.84-1.73,11.42,11.42,0,0,0,1.48-2.77l0-4.58c-.21.15-.49.32-.83.52s-.86.46-1.56.78-1.65.76-2.88,1.29a20.35,20.35,0,0,0-2.14,1,5.11,5.11,0,0,0-1.55,1.29,2.77,2.77,0,0,0-.58,1.85,3,3,0,0,0,1.16,2.78A3.88,3.88,0,0,0,493.56,161.28Z"/><path class="cls-6" d="M507.66,160.2c0-1.44,0-2.83,0-4.18s0-2.8,0-4.37v-2c0-1.22,0-2.59,0-4.11s0-3.08,0-4.7l2.15-.6,0,3.46.27-.05a11.38,11.38,0,0,1,1.32-1.95,10.74,10.74,0,0,1,2-1.87,6.83,6.83,0,0,1,2.66-1.14,4.72,4.72,0,0,1,3.61.47,4.85,4.85,0,0,1,2,3.1l0,.11a10.72,10.72,0,0,1,.2,1.24,12.86,12.86,0,0,1,.06,1.41c0,.55,0,1.11,0,1.68s0,1.23,0,2c0,1.57,0,3,0,4.37s0,2.74,0,4.18l-2.41.49c0-1.45,0-2.84,0-4.16s0-2.76,0-4.29l0-3.33a6.48,6.48,0,0,0-.91-3.91,2.77,2.77,0,0,0-3-.82,5.28,5.28,0,0,0-2.27,1,9,9,0,0,0-1.8,1.89,25.44,25.44,0,0,0-1.56,2.43l0,4.62c0,1.55,0,3,0,4.33s0,2.73-.05,4.17Zm23.81-4.84c0-1.45,0-2.84,0-4.17s0-2.75,0-4.28l0-3.34a6.5,6.5,0,0,0-.91-3.91,2.77,2.77,0,0,0-3-.81,5.39,5.39,0,0,0-2.28,1,8.86,8.86,0,0,0-1.79,1.91c-.54.75-1.06,1.55-1.57,2.41l-.44-2.62.36-.07a14.43,14.43,0,0,1,1.42-2.06,11,11,0,0,1,2.08-1.94,7,7,0,0,1,2.7-1.18,4.39,4.39,0,0,1,4.38,1.13c1,1.13,1.54,2.86,1.5,5.21,0,.55,0,1.1,0,1.68s0,1.22,0,2c0,1.6,0,3.06,0,4.39s0,2.72,0,4.17Z"/><path class="cls-6" d="M549.11,152.16a9.29,9.29,0,0,1-5.37-.28,7,7,0,0,1-3.59-3.1,10.54,10.54,0,0,1-1.26-5.5,12.8,12.8,0,0,1,1-5,9.9,9.9,0,0,1,2.71-3.72,9,9,0,0,1,4.13-2,7.36,7.36,0,0,1,4.4.26,5.54,5.54,0,0,1,2.79,2.52,8.08,8.08,0,0,1,.9,4.09c0,.33,0,.69-.08,1.08s-.07.74-.11,1l-2.16-.77c0-.2,0-.4,0-.6s0-.38,0-.56a5.43,5.43,0,0,0-1.44-4.12,4.15,4.15,0,0,0-4-.89A6.62,6.62,0,0,0,544.2,136a7.19,7.19,0,0,0-2.05,2.8,10.67,10.67,0,0,0-.79,4.27v.38a7.84,7.84,0,0,0,.95,4.07,5,5,0,0,0,2.66,2.24,7.26,7.26,0,0,0,4,.16,11.8,11.8,0,0,0,1.89-.55,13.53,13.53,0,0,0,1.85-.86,10.06,10.06,0,0,0,1.6-1.11l.15,2.44a5.9,5.9,0,0,1-1.22.82,15.16,15.16,0,0,1-1.91.86A15.55,15.55,0,0,1,549.11,152.16Zm-9.2-7.6-.07-1.88,13.22-2.76,1.56.21v1.44Z"/></svg>