<svg xmlns="http://www.w3.org/2000/svg" viewBox="0 0 885.6 216.82"><defs><style>.cls-1,.cls-7,.cls-8{isolation:isolate;}.cls-2{fill:#43b883;}.cls-3{fill:#256448;}.cls-4{fill:#19222b;}.cls-5{fill:#364a5e;}.cls-6{mix-blend-mode:darken;}.cls-7{fill:#3b0f2f;}.cls-7,.cls-8{opacity:0.95;}.cls-8{fill:#ed3a95;}.cls-9{fill:#371b2a;}.cls-10{fill:#e23c92;}.cls-11{fill:#711f60;}</style></defs><g class="cls-1"><g id="Layer_1" data-name="Layer 1"><g id="logo-4" data-name="logo"><path class="cls-2" d="M229.08,32.39h37.21L33.75,192.88,80.22,32.39h71.17L140.91,69.61l53.74-37.22Z"/><path class="cls-3" d="M80.22,32.39,33.75,192.88,266.29,32.39H229.08L89.55,128.68,117,32.39Z"/><path class="cls-4" d="M117,32.39,89.15,129.15,229.08,32.39H194.65L140.91,69.61l10.48-37.22Z"/><path class="cls-2" d="M224.71,23.94h37.21L29.38,184.42,75.85,23.94H147L136.54,61.15l53.74-37.21Z"/><path class="cls-2" d="M75.85,23.94,29.38,184.42,261.92,23.94H224.71L85.18,120.23,112.6,23.94Z"/><path class="cls-5" d="M112.6,23.94,84.78,120.7,224.71,23.94H190.28L136.54,61.15,147,23.94Z"/><g class="cls-6"><path id="path2987" class="cls-7" d="M45.11,133.28c-.1-.16,10-35.12,10.3-35.55s13.5-.28,13.68,0c.07.11-1.44,5.59-3.36,12.18S62.29,122,62.35,122.16c.15.39,4.47.4,4.77,0S75.74,93,75.59,92.78s-4-.2-9.3-.2c-5.05,0-9.23-.08-9.29-.18s1.88-6.94,4.31-15.21l4.43-15L82,62.09c8.94,0,16.34,0,16.43.12s-2.55,9.51-5.88,20.94-7.94,27.23-10.24,35.14S78,132.84,77.93,133.05c-.19.37-1.21.39-16.46.39-8.95,0-16.31-.07-16.36-.16ZM79,81.29a74.7,74.7,0,0,0,2.3-7.89c0-.31-.33-.36-2.33-.36-1.6,0-2.39.09-2.54.28a76.86,76.86,0,0,0-2.31,7.89c0,.31.33.37,2.33.37,1.6,0,2.4-.09,2.55-.29ZM93.39,92.41c-.06-.09,1.88-6.94,4.32-15.21l4.42-15.05,6.71-.06a63.33,63.33,0,0,1,6.9.14,92.37,92.37,0,0,1-2.51,9.4c-1.49,5.06-2.71,9.37-2.71,9.58s.29.37,2.53.32l2.53-.07,2.8-9.44c1.55-5.19,2.89-9.56,3-9.71.21-.31,13.3-.4,13.48-.1.05.09-1.89,6.94-4.33,15.21l-4.42,15-16.31,0c-9,0-16.35,0-16.4-.11Zm35.92,0c-.05-.09,1.89-6.94,4.33-15.21l4.42-15.05,16.25-.06c8.94,0,16.33,0,16.41.12s-1.83,6.94-4.27,15.21l-4.42,15-6.71,0a61.93,61.93,0,0,1-6.9-.13,91.6,91.6,0,0,1,2.51-9.4c1.49-5.07,2.71-9.38,2.71-9.58s-.29-.38-2.53-.32l-2.53.06-2.8,9.45c-1.55,5.19-2.89,9.56-3,9.71s-13.3.4-13.48.1Zm40.64-10c-.95-.75-.95-1.58,0-5.06.65-2.4,1-3.27,1.46-3.74a2,2,0,0,1,3.46,1c.21,1.17-1.4,6.82-2.18,7.6a2,2,0,0,1-2.74.16Z"/><path id="path2989-1" class="cls-7" d="M98.67,95.84c-2.15,0-3.41.17-4.8,1.62a8.64,8.64,0,0,0-1.72,8.08c1.07,2.8,4.12,3.74,5.44,4.34-3.3-2.67-2.1-8.06,1.34-10.59h2.81c6.31,0,5.91-.59,6,3.79h0c.12-6.18,0-7.1-5.52-7.22-1.44,0-2.6,0-3.58,0Zm10.89,12.33c-.64,4-3.09,4.48-7.82,4.46H87.5l-1.32,4.47h14.65c5.32-.12,7.94-4.47,8.73-8.93Z"/></g><path id="path2987-2" data-name="path2987" class="cls-8" d="M39,122.22c-.1-.16,10-35.11,10.3-35.55.17-.28,13.5-.28,13.68,0,.07.12-1.44,5.6-3.36,12.18S56.19,111,56.25,111.1c.15.4,4.47.4,4.77,0S69.64,82,69.5,81.72s-4-.2-9.31-.2c-5,0-9.23-.08-9.29-.18s1.88-6.94,4.31-15.21l4.43-15L75.9,51c8.94,0,16.34,0,16.43.11s-2.55,9.52-5.88,20.94L76.21,107.23c-2.3,7.9-4.27,14.55-4.38,14.76-.19.37-1.2.4-16.46.4-8.94,0-16.31-.08-16.36-.17Zm33.92-52a76.11,76.11,0,0,0,2.3-7.89c0-.31-.33-.37-2.33-.37-1.6,0-2.39.09-2.54.29a76.67,76.67,0,0,0-2.31,7.88c0,.32.33.37,2.33.37,1.6,0,2.4-.09,2.55-.28ZM87.29,81.35c-.06-.09,1.89-6.94,4.32-15.21l4.43-15,6.7-.06a63.7,63.7,0,0,1,6.91.14,96.78,96.78,0,0,1-2.52,9.4c-1.49,5.06-2.7,9.38-2.7,9.58s.28.37,2.52.32l2.53-.07,2.8-9.44c1.55-5.19,2.89-9.56,3-9.71s13.3-.4,13.48-.1c.06.09-1.89,6.94-4.32,15.21l-4.43,15-16.31.06c-9,0-16.35,0-16.4-.12Zm35.92,0c0-.09,1.89-6.94,4.33-15.21l4.42-15L148.21,51c8.94,0,16.33,0,16.42.11s-1.84,6.94-4.27,15.21l-4.43,15-6.71.06a63.45,63.45,0,0,1-6.9-.14,95.66,95.66,0,0,1,2.51-9.4c1.49-5.06,2.71-9.38,2.71-9.58S147.25,62,145,62l-2.52.07-2.81,9.44c-1.54,5.19-2.89,9.56-3,9.71s-13.3.4-13.48.1Zm40.65-9.94c-1-.75-1-1.59,0-5.06.65-2.41,1-3.27,1.46-3.75a2,2,0,0,1,3.46,1c.22,1.17-1.4,6.82-2.17,7.61a2,2,0,0,1-2.74.16Z"/><path id="path2989-1-2" data-name="path2989-1" class="cls-8" d="M92.57,84.78c-2.15,0-3.41.17-4.79,1.62a8.65,8.65,0,0,0-1.73,8.08c1.07,2.8,4.12,3.74,5.45,4.34-3.31-2.66-2.11-8.06,1.33-10.59h2.81c6.31,0,5.92-.58,6,3.79h0c.12-6.18,0-7.1-5.51-7.22-1.45,0-2.61,0-3.59,0Zm10.89,12.33c-.63,4-3.09,4.48-7.82,4.47H81.4L80.08,106H94.74c5.32-.12,7.93-4.47,8.72-8.93Z"/></g><path class="cls-9" d="M205.55,69.74H834.94a3.53,3.53,0,0,0,3.3-2.71l1-4.86a2.14,2.14,0,0,0-2.14-2.72H207.74a3.55,3.55,0,0,0-3.3,2.72l-1,4.86A2.13,2.13,0,0,0,205.55,69.74Z"/><path class="cls-10" d="M201.87,64.6H831.26a3.55,3.55,0,0,0,3.3-2.72l1-4.86a2.13,2.13,0,0,0-2.14-2.71H204.06a3.54,3.54,0,0,0-3.3,2.71l-1,4.86A2.14,2.14,0,0,0,201.87,64.6Z"/><path class="cls-11" d="M197.87,121.67c-.15.44-.43,2.9-1,7.67s-.87,7.38-1,8.1a25,25,0,0,0-13.16-3.33c-12.58,0-21.12,8.54-21.12,22.86,0,8.68,5.64,14.47,15.48,14.47A33.79,33.79,0,0,0,193.67,167l-2.17,15.33c-5.35,2.9-12.29,4.34-21,4.34-9.11,0-16.06-2.6-21.12-8S142,166.37,142,158.13c0-12,3.76-21.7,11.43-28.79s17.07-10.7,28.35-10.7Q191.58,118.64,197.87,121.67Z"/><path class="cls-11" d="M266.29,147.13c0,11.29-3.62,20.69-11,28.21s-16.64,11.28-28.06,11.28c-19.53,0-30.67-11.28-30.67-28.49,0-11.14,3.61-20.4,11-28.07s16.93-11.42,28.5-11.42C255.3,118.64,266.29,129.92,266.29,147.13Zm-45.13-6.36a25.09,25.09,0,0,0-5.06,15.77c0,8.82,4.48,14.61,13,14.61a16.62,16.62,0,0,0,13.3-6.37,23.55,23.55,0,0,0,5.36-15.62c0-8.82-4.78-14.9-13.31-14.9A16,16,0,0,0,221.16,140.77Z"/><path class="cls-11" d="M291.9,129.49l.57.29c6.22-7.38,13.46-11.14,21.7-11.14,9.55,0,15.48,4.19,17.94,12.58,5.93-8.39,13.45-12.58,22.42-12.58,12.87,0,19.82,7.08,19.82,19.24a58,58,0,0,1-.87,8.53c-.72,4.77-1.74,11.43-2.89,20.25L368.13,185H349c.73-4.34,1.6-10.7,2.75-19.09l2.61-18.81c0-.72.14-2.17.14-2.6,0-6.8-2.75-10.13-8.24-10.13-8.25,0-13.17,6.8-15.05,20.26L327.05,185H308l5.21-37.32c1.3-8.82-1.3-13.31-7.67-13.31-8.68,0-13.88,6.8-15.76,20.54L285.82,185H266.73l9-64.37h15.19Z"/><path class="cls-11" d="M401.83,129.05c5.5-6.8,13.17-10.12,23-10.12,8.54,0,14.9,2.6,19.24,7.95s6.51,11.72,6.51,19.53c0,12.3-3.47,22-10.27,29.22a33.19,33.19,0,0,1-25.17,10.85c-8.82,0-15-2.6-18.66-8-.14,0-.72.29-.87.29l-5.35,37.47H371.6l13.31-95.62h15.62c.15,1.88.29,4.63.72,8.25C401.54,128.91,401.69,128.91,401.83,129.05Zm3.47,11.72c-3.61,4.19-5.35,9.55-5.35,16.06,0,8.82,4.78,14.75,13.46,14.75a16.24,16.24,0,0,0,13.3-6.36,25.09,25.09,0,0,0,5.07-15.77c0-9.11-4.63-15-13.17-15A16.85,16.85,0,0,0,405.3,140.77Z"/><path class="cls-11" d="M521.75,147.13c0,11.29-3.62,20.69-11,28.21s-16.64,11.28-28.07,11.28c-19.52,0-30.66-11.28-30.66-28.49,0-11.14,3.61-20.4,11-28.07s16.93-11.42,28.5-11.42C510.76,118.64,521.75,129.92,521.75,147.13Zm-45.13-6.36a25.09,25.09,0,0,0-5.06,15.77c0,8.82,4.48,14.61,13,14.61a16.63,16.63,0,0,0,13.31-6.37,23.54,23.54,0,0,0,5.35-15.62c0-8.82-4.77-14.9-13.3-14.9A16,16,0,0,0,476.62,140.77Z"/><path class="cls-11" d="M518.86,173.46l.87-7.52a30.72,30.72,0,0,0,21,7.66c5.93,0,10.42-2.45,10.42-7.52,0-3.9-6.51-7.66-13-10.56s-12.88-9.11-12.88-16.63c0-12.59,10.85-20.11,26.33-20.11a47.42,47.42,0,0,1,20.25,4.49l-1.88,14c-5.35-3.33-10.7-5.07-16.06-5.07q-9.54,0-9.54,6.51c0,7.67,25.17,9.12,25.17,26.91,0,12.58-10.85,20.83-28.64,20.83-9.26,0-16.93-1.88-22.86-5.5Z"/><path class="cls-11" d="M621.71,177.22H621c-6.51,6.22-14.32,9.26-23.72,9.26-16.78,0-25.46-10.71-25.46-26.47,0-12,3.33-21.84,10.13-29.51s15.48-11.57,26.18-11.57c9.4,0,16.35,3.32,20.69,10.12h.43l3.76-8.39h12.59l-9,64.37H622.72ZM596,140.91a26.78,26.78,0,0,0-4.77,15.77c0,9.11,4,14.61,12.58,14.61a16.3,16.3,0,0,0,13-6.36c3.62-4.2,5.35-9.55,5.35-16.06,0-8.68-4.63-14.76-13.16-14.76A15.2,15.2,0,0,0,596,140.91Z"/><path class="cls-11" d="M659.46,82.18h18.37l-6.51,44.7.58.29c5.36-5.64,12-8.39,20.11-8.39,17.5,0,27.34,11.14,27.34,27.2,0,11.71-3.47,21.4-10.27,29.07q-10.2,11.28-26.47,11.28c-9.84,0-16.78-3.32-20.69-10h-.72l-3,8.68H645Zm41.09,67.27c0-9.11-4.34-15.34-13-15.34a16.25,16.25,0,0,0-13.6,6.66,23.72,23.72,0,0,0-5.21,15.33c0,8.83,4.63,14.76,13.16,14.9C693,171,700.55,162,700.55,149.45Z"/><path class="cls-11" d="M739.31,185H720.07L734.39,82.18h19.24Z"/><path class="cls-11" d="M811.06,137.73c0,6.8-3.33,12.3-10.13,16.2s-15,5.93-25,5.93a74.52,74.52,0,0,1-7.81-.43c-1.88,9.26,4.34,13.45,14.61,13.45a39.88,39.88,0,0,0,24-7.95c-1,6.51-1.59,11.42-2,14.75-7.38,4.49-16.35,6.8-26.77,6.8-19.81,0-29.36-11.57-29.36-27.92A40.89,40.89,0,0,1,759,130.5c6.95-8,16.06-11.86,27.49-11.86C801.51,118.64,811.06,126.59,811.06,137.73ZM768.68,149.3a20.91,20.91,0,0,0,4.91.44,36.55,36.55,0,0,0,13.46-2.32c4.19-1.59,6.22-4.19,6.22-7.52,0-4.05-2.75-7.09-8.39-7.09C776.63,132.81,770.41,139.32,768.68,149.3Z"/><path class="cls-11" d="M807.59,173.46l.87-7.52a30.71,30.71,0,0,0,21,7.66c5.93,0,10.42-2.45,10.42-7.52,0-3.9-6.51-7.66-13-10.56S814,146.41,814,138.89c0-12.59,10.85-20.11,26.33-20.11a47.42,47.42,0,0,1,20.25,4.49l-1.88,14c-5.35-3.33-10.7-5.07-16.06-5.07q-9.54,0-9.54,6.51c0,7.67,25.17,9.12,25.17,26.91,0,12.58-10.85,20.83-28.64,20.83-9.26,0-16.93-1.88-22.86-5.5Z"/><path class="cls-10" d="M190.87,114.67c-.15.44-.43,2.9-1,7.67s-.87,7.38-1,8.1a25,25,0,0,0-13.16-3.33c-12.58,0-21.12,8.54-21.12,22.86,0,8.68,5.64,14.47,15.48,14.47A33.79,33.79,0,0,0,186.67,160l-2.17,15.33c-5.35,2.9-12.29,4.34-21,4.34-9.11,0-16.06-2.6-21.12-8S135,159.37,135,151.13c0-12,3.76-21.7,11.43-28.79s17.07-10.7,28.35-10.7Q184.58,111.64,190.87,114.67Z"/><path class="cls-10" d="M259.29,140.13c0,11.29-3.62,20.69-11,28.21s-16.64,11.28-28.06,11.28c-19.53,0-30.67-11.28-30.67-28.49,0-11.14,3.61-20.4,11-28.07s16.93-11.42,28.5-11.42C248.3,111.64,259.29,122.92,259.29,140.13Zm-45.13-6.36a25.09,25.09,0,0,0-5.06,15.77c0,8.82,4.48,14.61,13,14.61a16.62,16.62,0,0,0,13.3-6.37,23.55,23.55,0,0,0,5.36-15.62c0-8.82-4.78-14.9-13.31-14.9A16,16,0,0,0,214.16,133.77Z"/><path class="cls-10" d="M284.9,122.49l.57.29c6.22-7.38,13.46-11.14,21.7-11.14,9.55,0,15.48,4.19,17.94,12.58,5.93-8.39,13.45-12.58,22.42-12.58,12.87,0,19.82,7.08,19.82,19.24a58,58,0,0,1-.87,8.53c-.72,4.77-1.74,11.43-2.89,20.25L361.13,178H342c.73-4.34,1.6-10.7,2.75-19.09l2.61-18.81c0-.72.14-2.17.14-2.6,0-6.8-2.75-10.13-8.24-10.13-8.25,0-13.17,6.8-15.05,20.26L320.05,178H301l5.21-37.32c1.3-8.82-1.3-13.31-7.67-13.31-8.68,0-13.88,6.8-15.76,20.54L278.82,178H259.73l9-64.37h15.19Z"/><path class="cls-10" d="M394.83,122.05c5.5-6.8,13.17-10.12,23-10.12,8.54,0,14.9,2.6,19.24,7.95s6.51,11.72,6.51,19.53c0,12.3-3.47,22-10.27,29.22a33.19,33.19,0,0,1-25.17,10.85c-8.82,0-15-2.6-18.66-8-.14,0-.72.29-.87.29l-5.35,37.47H364.6l13.31-95.62h15.62c.15,1.88.29,4.63.72,8.25C394.54,121.91,394.69,121.91,394.83,122.05Zm3.47,11.72c-3.61,4.19-5.35,9.55-5.35,16.06,0,8.82,4.78,14.75,13.46,14.75a16.24,16.24,0,0,0,13.3-6.36,25.09,25.09,0,0,0,5.07-15.77c0-9.11-4.63-15-13.17-15A16.85,16.85,0,0,0,398.3,133.77Z"/><path class="cls-10" d="M514.75,140.13c0,11.29-3.62,20.69-11,28.21s-16.64,11.28-28.07,11.28c-19.52,0-30.66-11.28-30.66-28.49,0-11.14,3.61-20.4,11-28.07s16.93-11.42,28.5-11.42C503.76,111.64,514.75,122.92,514.75,140.13Zm-45.13-6.36a25.09,25.09,0,0,0-5.06,15.77c0,8.82,4.48,14.61,13,14.61a16.63,16.63,0,0,0,13.31-6.37,23.54,23.54,0,0,0,5.35-15.62c0-8.82-4.77-14.9-13.3-14.9A16,16,0,0,0,469.62,133.77Z"/><path class="cls-10" d="M511.86,166.46l.87-7.52a30.72,30.72,0,0,0,21,7.66c5.93,0,10.42-2.45,10.42-7.52,0-3.9-6.51-7.66-13-10.56s-12.88-9.11-12.88-16.63c0-12.59,10.85-20.11,26.33-20.11a47.42,47.42,0,0,1,20.25,4.49l-1.88,14c-5.35-3.33-10.7-5.07-16.06-5.07q-9.54,0-9.54,6.51c0,7.67,25.17,9.12,25.17,26.91,0,12.58-10.85,20.83-28.64,20.83-9.26,0-16.93-1.88-22.86-5.5Z"/><path class="cls-10" d="M614.71,170.22H614c-6.51,6.22-14.32,9.26-23.72,9.26-16.78,0-25.46-10.71-25.46-26.47,0-12,3.33-21.84,10.13-29.51s15.48-11.57,26.18-11.57c9.4,0,16.35,3.32,20.69,10.12h.43l3.76-8.39h12.59l-9,64.37H615.72ZM589,133.91a26.78,26.78,0,0,0-4.77,15.77c0,9.11,4,14.61,12.58,14.61a16.3,16.3,0,0,0,13-6.36c3.62-4.2,5.35-9.55,5.35-16.06,0-8.68-4.63-14.76-13.16-14.76A15.2,15.2,0,0,0,589,133.91Z"/><path class="cls-10" d="M652.46,75.18h18.37l-6.51,44.7.58.29c5.36-5.64,12-8.39,20.11-8.39,17.5,0,27.34,11.14,27.34,27.2,0,11.71-3.47,21.4-10.27,29.07q-10.2,11.28-26.47,11.28c-9.84,0-16.78-3.32-20.69-10h-.72l-3,8.68H638Zm41.09,67.27c0-9.11-4.34-15.34-13-15.34a16.25,16.25,0,0,0-13.6,6.66,23.72,23.72,0,0,0-5.21,15.33c0,8.83,4.63,14.76,13.16,14.9C686,164,693.55,155,693.55,142.45Z"/><path class="cls-10" d="M732.31,178H713.07L727.39,75.18h19.24Z"/><path class="cls-10" d="M804.06,130.73c0,6.8-3.33,12.3-10.13,16.2s-15,5.93-25,5.93a74.52,74.52,0,0,1-7.81-.43c-1.88,9.26,4.34,13.45,14.61,13.45a39.88,39.88,0,0,0,24-7.95c-1,6.51-1.59,11.42-2,14.75-7.38,4.49-16.35,6.8-26.77,6.8-19.81,0-29.36-11.57-29.36-27.92A40.89,40.89,0,0,1,752,123.5c6.95-8,16.06-11.86,27.49-11.86C794.51,111.64,804.06,119.59,804.06,130.73ZM761.68,142.3a20.91,20.91,0,0,0,4.91.44,36.55,36.55,0,0,0,13.46-2.32c4.19-1.59,6.22-4.19,6.22-7.52,0-4.05-2.75-7.09-8.39-7.09C769.63,125.81,763.41,132.32,761.68,142.3Z"/><path class="cls-10" d="M800.59,166.46l.87-7.52a30.71,30.71,0,0,0,21,7.66c5.93,0,10.42-2.45,10.42-7.52,0-3.9-6.51-7.66-13-10.56S807,139.41,807,131.89c0-12.59,10.85-20.11,26.33-20.11a47.42,47.42,0,0,1,20.25,4.49l-1.88,14c-5.35-3.33-10.7-5.07-16.06-5.07q-9.54,0-9.54,6.51c0,7.67,25.17,9.12,25.17,26.91,0,12.58-10.85,20.83-28.64,20.83-9.26,0-16.93-1.88-22.86-5.5Z"/></g></g></svg>