<svg xmlns="http://www.w3.org/2000/svg" viewBox="0 0 483.82 237.18"><defs><style>.cls-1,.cls-10,.cls-9{isolation:isolate;}.cls-2{fill:#711f60;}.cls-3{fill:#e23c92;}.cls-4{fill:#43b883;}.cls-5{fill:#256448;}.cls-6{fill:#19222b;}.cls-7{fill:#364a5e;}.cls-8{mix-blend-mode:darken;}.cls-9{fill:#3b0f2f;}.cls-10,.cls-9{opacity:0.95;}.cls-10{fill:#ed3a95;}.cls-11{fill:#371b2a;}</style></defs><g class="cls-1"><g id="Layer_1" data-name="Layer 1"><path class="cls-2" d="M162.61,129.68l.58.15c4.19-9.12,11-13.75,20.39-13.75a24.92,24.92,0,0,1,8.68,1.45c-.14,2-.58,5.06-1,9.11s-.87,7.09-1,9.26a22.5,22.5,0,0,0-9.84-2.46c-8.68,0-17.07,8.68-19,23.15l-3.32,25.6H139l9-64.37h13.89Z"/><path class="cls-2" d="M246.8,134.89c0,6.8-3.33,12.29-10.13,16.2s-15,5.93-25,5.93a74.38,74.38,0,0,1-7.81-.43C202,165.85,208.18,170,218.45,170a39.83,39.83,0,0,0,24-8c-1,6.51-1.59,11.43-2,14.76-7.37,4.48-16.34,6.8-26.76,6.8-19.82,0-29.36-11.57-29.36-27.92a40.89,40.89,0,0,1,10.41-28.06c6.95-8,16.06-11.86,27.49-11.86C237.25,115.8,246.8,123.75,246.8,134.89Zm-42.39,11.57a21.07,21.07,0,0,0,4.92.44,36.55,36.55,0,0,0,13.46-2.32C227,143,229,140.39,229,137.06c0-4.05-2.75-7.09-8.39-7.09C212.37,130,206.15,136.48,204.41,146.46Z"/><path class="cls-2" d="M266,182.19H246.8L261.12,79.34h19.24Z"/><path class="cls-2" d="M325.2,174.38h-.72c-6.51,6.22-14.33,9.26-23.73,9.26-16.78,0-25.46-10.71-25.46-26.47,0-12,3.33-21.85,10.13-29.51s15.48-11.58,26.18-11.58c9.4,0,16.35,3.33,20.69,10.13h.43l3.76-8.39h12.59l-9,64.37H326.21Zm-25.75-36.31a26.78,26.78,0,0,0-4.77,15.77c0,9.11,4.05,14.61,12.58,14.61a16.28,16.28,0,0,0,13-6.37c3.62-4.19,5.35-9.54,5.35-16.05,0-8.68-4.63-14.76-13.16-14.76A15.2,15.2,0,0,0,299.45,138.07Z"/><path class="cls-2" d="M377.27,161.65H378l20.68-43.83h19.53l-50.34,95.76H349.36l17.21-33.27-16.78-62.49h19.53Z"/><path class="cls-3" d="M155.61,122.68l.58.15c4.19-9.12,11-13.75,20.39-13.75a24.92,24.92,0,0,1,8.68,1.45c-.14,2-.58,5.06-1,9.11s-.87,7.09-1,9.26a22.5,22.5,0,0,0-9.84-2.46c-8.68,0-17.07,8.68-19,23.15l-3.32,25.6H132l9-64.37h13.89Z"/><path class="cls-3" d="M239.8,127.89c0,6.8-3.33,12.29-10.13,16.2s-15,5.93-25,5.93a74.38,74.38,0,0,1-7.81-.43C195,158.85,201.18,163,211.45,163a39.83,39.83,0,0,0,24-8c-1,6.51-1.59,11.43-2,14.76-7.37,4.48-16.34,6.8-26.76,6.8-19.82,0-29.36-11.57-29.36-27.92a40.89,40.89,0,0,1,10.41-28.06c6.95-8,16.06-11.86,27.49-11.86C230.25,108.8,239.8,116.75,239.8,127.89Zm-42.39,11.57a21.07,21.07,0,0,0,4.92.44,36.55,36.55,0,0,0,13.46-2.32C220,136,222,133.39,222,130.06c0-4-2.75-7.09-8.39-7.09C205.37,123,199.15,129.48,197.41,139.46Z"/><path class="cls-3" d="M259,175.19H239.8L254.12,72.34h19.24Z"/><path class="cls-3" d="M318.2,167.38h-.72c-6.51,6.22-14.33,9.26-23.73,9.26-16.78,0-25.46-10.71-25.46-26.47,0-12,3.33-21.85,10.13-29.51s15.48-11.58,26.18-11.58c9.4,0,16.35,3.33,20.69,10.13h.43l3.76-8.39h12.59l-9,64.37H319.21Zm-25.75-36.31a26.78,26.78,0,0,0-4.77,15.77c0,9.11,4.05,14.61,12.58,14.61a16.28,16.28,0,0,0,13-6.37c3.62-4.19,5.35-9.54,5.35-16.05,0-8.68-4.63-14.76-13.16-14.76A15.2,15.2,0,0,0,292.45,131.07Z"/><path class="cls-3" d="M370.27,154.65H371l20.68-43.83h19.53l-50.34,95.76H342.36l17.21-33.27-16.78-62.49h19.53Z"/><g id="logo-3" data-name="logo"><path class="cls-4" d="M219.84,23.16h37.22L24.51,183.64,71,23.16h71.17L131.67,60.37l53.75-37.21Z"/><path class="cls-5" d="M71,23.16,24.51,183.64,257.06,23.16H219.84L80.32,119.45l27.42-96.29Z"/><path class="cls-6" d="M107.74,23.16,79.91,119.91,219.84,23.16H185.42L131.67,60.37l10.49-37.21Z"/><path class="cls-4" d="M215.47,14.71h37.22L20.14,175.19,66.62,14.71h71.17L127.3,51.92l53.75-37.21Z"/><path class="cls-4" d="M66.62,14.71,20.14,175.19,252.69,14.71H215.47L76,111l27.42-96.29Z"/><path class="cls-7" d="M103.37,14.71,75.54,111.46,215.47,14.71H181.05L127.3,51.92l10.49-37.21Z"/><g class="cls-8"><path id="path2987" class="cls-9" d="M35.87,124c-.09-.16,10-35.11,10.3-35.54.18-.28,13.51-.29,13.68,0,.08.11-1.44,5.59-3.35,12.17s-3.44,12.1-3.38,12.26c.15.39,4.47.39,4.77,0s8.61-29.15,8.47-29.38-4-.21-9.3-.21c-5.05,0-9.23-.08-9.29-.17s1.88-7,4.31-15.22l4.42-15,16.27-.06c8.94,0,16.33,0,16.43.11s-2.56,9.52-5.89,20.94-7.93,27.24-10.23,35.15-4.28,14.54-4.39,14.76c-.19.37-1.2.39-16.46.39-8.94,0-16.3-.07-16.36-.17Zm33.92-52a72.41,72.41,0,0,0,2.31-7.89c0-.31-.34-.36-2.33-.36-1.6,0-2.4.09-2.54.28A73.76,73.76,0,0,0,64.91,72c0,.31.34.36,2.34.36,1.59,0,2.39-.09,2.54-.28ZM84.15,83.18C84.1,83.08,86,76.24,88.48,68l4.42-15,6.71-.06a63.45,63.45,0,0,1,6.9.14A95.66,95.66,0,0,1,104,62.4c-1.49,5.06-2.71,9.37-2.71,9.58s.28.37,2.53.31l2.52-.06,2.81-9.44c1.54-5.2,2.89-9.57,3-9.71.2-.31,13.3-.41,13.48-.1,0,.09-1.89,6.93-4.33,15.21l-4.42,15-16.31.06c-9,0-16.35,0-16.41-.11Zm35.93,0C120,83.08,122,76.24,124.4,68l4.43-15,16.25-.06c8.94,0,16.32,0,16.41.11s-1.83,6.94-4.27,15.22l-4.43,15-6.7.06a68.58,68.58,0,0,1-6.91-.13,96.5,96.5,0,0,1,2.52-9.41c1.49-5.06,2.7-9.37,2.7-9.58s-.28-.37-2.52-.31l-2.53.06-2.81,9.44c-1.54,5.2-2.88,9.57-3,9.72-.21.3-13.3.4-13.48.1Zm40.64-10c-.95-.75-.95-1.59,0-5.06.66-2.4,1-3.27,1.46-3.74a2,2,0,0,1,3.46,1c.22,1.17-1.39,6.82-2.17,7.61a2,2,0,0,1-2.74.16Z"/><path id="path2989-1" class="cls-9" d="M89.44,86.61c-2.16,0-3.41.16-4.8,1.62a8.65,8.65,0,0,0-1.73,8.07C84,99.11,87,100,88.36,100.65c-3.3-2.67-2.11-8.06,1.34-10.59h2.81c6.31,0,5.91-.59,6,3.79h0c.12-6.18,0-7.1-5.52-7.23-1.44,0-2.61,0-3.58,0Zm10.89,12.33c-.64,4-3.09,4.48-7.82,4.46H78.27l-1.33,4.46H91.6c5.32-.11,7.94-4.46,8.73-8.92Z"/></g><path id="path2987-2" data-name="path2987" class="cls-10" d="M29.78,113c-.1-.17,10-35.12,10.3-35.55.17-.28,13.5-.28,13.68,0,.07.11-1.44,5.59-3.36,12.18S47,101.71,47,101.87c.15.39,4.47.4,4.77,0s8.62-29.15,8.47-29.38-4-.2-9.3-.2c-5.05,0-9.23-.08-9.29-.18s1.88-7,4.31-15.21l4.42-15,16.27-.06c8.94,0,16.34,0,16.43.12s-2.56,9.51-5.88,20.94S69.28,90.09,67,98s-4.28,14.54-4.39,14.76-1.2.39-16.45.39c-9,0-16.31-.07-16.36-.16ZM63.69,61A72.41,72.41,0,0,0,66,53.11c0-.31-.33-.36-2.33-.36-1.6,0-2.39.09-2.54.28a76.13,76.13,0,0,0-2.31,7.89c0,.31.33.36,2.33.36,1.6,0,2.4-.08,2.54-.28ZM78.05,72.12c0-.09,1.89-6.94,4.33-15.21l4.42-15,6.71-.06a63.45,63.45,0,0,1,6.9.14,92.37,92.37,0,0,1-2.51,9.4c-1.49,5.06-2.71,9.37-2.71,9.58s.29.37,2.53.32l2.53-.07,2.8-9.44c1.55-5.19,2.89-9.56,3-9.71.21-.31,13.3-.4,13.48-.1,0,.09-1.89,6.94-4.33,15.21l-4.42,15-16.31.06c-9,0-16.35,0-16.41-.11Zm35.93,0c-.06-.09,1.89-6.94,4.33-15.21l4.42-15L139,41.8c8.94,0,16.32,0,16.41.12s-1.83,6.94-4.27,15.21l-4.42,15-6.71.06a61.93,61.93,0,0,1-6.9-.13,90.85,90.85,0,0,1,2.51-9.4c1.49-5.07,2.71-9.38,2.71-9.59s-.29-.37-2.53-.31l-2.53.06-2.8,9.45c-1.55,5.19-2.89,9.56-3,9.71-.21.3-13.3.4-13.48.1Zm40.64-10c-1-.75-1-1.58,0-5.06.66-2.4,1-3.27,1.46-3.74a2,2,0,0,1,3.46,1c.22,1.17-1.39,6.81-2.17,7.6a2,2,0,0,1-2.74.16Z"/><path id="path2989-1-2" data-name="path2989-1" class="cls-10" d="M83.34,75.55c-2.15,0-3.41.17-4.8,1.62a8.64,8.64,0,0,0-1.72,8.08c1.07,2.8,4.11,3.74,5.44,4.34C79,86.92,80.16,81.53,83.6,79h2.81c6.31,0,5.91-.59,6,3.79h0c.12-6.18,0-7.1-5.52-7.22-1.44,0-2.61,0-3.58,0ZM94.23,87.88c-.64,4-3.09,4.48-7.82,4.46H72.17L70.85,96.8H85.5c5.32-.11,7.94-4.46,8.73-8.92Z"/></g><path class="cls-11" d="M183.44,67.67h262.8c.63,0,1.24-1.22,1.38-2.72l.43-4.86c.13-1.5-.27-2.71-.9-2.71H184.35c-.62,0-1.24,1.21-1.37,2.71L182.55,65C182.41,66.45,182.81,67.67,183.44,67.67Z"/><path class="cls-3" d="M181.9,62.52H444.7c.63,0,1.25-1.22,1.38-2.72l.43-4.85c.13-1.5-.27-2.72-.89-2.72H182.82c-.63,0-1.25,1.22-1.38,2.72L181,59.8C180.88,61.3,181.28,62.52,181.9,62.52Z"/></g></g></svg>