<svg id="Layer_1" data-name="Layer 1" xmlns="http://www.w3.org/2000/svg" xmlns:xlink="http://www.w3.org/1999/xlink" viewBox="0 0 885.6 216.82"><defs><style>.cls-1{fill:#43b883;}.cls-2{fill:#256448;}.cls-3{fill:#19222b;}.cls-4{fill:#364a5e;}.cls-5{mix-blend-mode:darken;}.cls-6{fill:#3b0f2f;}.cls-6,.cls-7{isolation:isolate;opacity:0.95;}.cls-7{fill:#ed3a95;}.cls-10,.cls-8{font-size:144.66px;font-family:PFBagueSansPro-BoldItalic, PF Bague Sans Pro;font-weight:700;font-style:italic;letter-spacing:-0.05em;}.cls-8{fill:#5c1b4f;}.cls-9{letter-spacing:-0.06em;}.cls-10,.cls-12{fill:#e23c92;}.cls-11{fill:#371b2a;}</style><symbol id="logo" data-name="logo" viewBox="0 0 694.91 495.53"><path class="cls-1" d="M585.75,24.79H694.91L12.82,495.53,149.13,24.79H357.89L327.13,134,484.79,24.79Z"/><path class="cls-2" d="M149.13,24.79,12.82,495.53,694.91,24.79H585.75L176.5,307.23,256.92,24.79Z"/><path class="cls-3" d="M256.92,24.79,175.31,308.6,585.75,24.79h-101L327.13,134,357.89,24.79Z"/><path class="cls-1" d="M572.94,0H682.09L0,470.73,136.31,0H345.07L314.32,109.16,472,0Z"/><path class="cls-1" d="M136.31,0,0,470.73,682.09,0H572.94L163.68,282.44,244.1,0Z"/><path class="cls-4" d="M244.1,0,162.5,283.81,572.94,0H472L314.32,109.16,345.07,0Z"/><g class="cls-5"><path id="path2987" class="cls-6" d="M46.14,320.71c-.28-.47,29.42-103,30.21-104.27.51-.82,39.62-.83,40.12,0,.21.34-4.22,16.41-9.85,35.72s-10.08,35.48-9.91,35.94c.45,1.16,13.11,1.17,14,0s25.27-85.5,24.85-86.18c-.21-.34-11.83-.6-27.29-.6-14.81,0-27.07-.24-27.25-.52s5.51-20.37,12.65-44.63l13-44.09,47.71-.17c26.23-.1,47.92,0,48.19.33s-7.49,27.91-17.25,61.42-23.28,79.89-30,103.07-12.54,42.68-12.86,43.31c-.55,1.08-3.52,1.15-48.28,1.15-26.23,0-47.82-.22-48-.49Zm99.49-152.48c.74-.95,6.77-21.56,6.77-23.14,0-.91-1-1.06-6.84-1.06-4.69,0-7,.26-7.46.82-.74,1-6.78,21.59-6.78,23.14,0,.92,1,1.07,6.83,1.07,4.69,0,7-.26,7.48-.83Zm42.12,32.61c-.17-.27,5.54-20.36,12.68-44.63l13-44.12,19.67-.18c10.82-.09,19.93.09,20.25.4s-2.82,12.13-7.37,27.58C241.59,154.74,238,167.38,238,168c0,1,.83,1.09,7.41.92l7.41-.18,8.23-27.7c4.53-15.23,8.47-28,8.77-28.48.6-.9,39-1.18,39.53-.3.16.27-5.55,20.35-12.69,44.62L283.7,201l-47.83.17c-26.3.09-48,0-48.12-.33Zm105.38,0c-.17-.28,5.54-20.36,12.68-44.63l13-44.12,47.67-.17c26.22-.1,47.88,0,48.14.33s-5.38,20.35-12.53,44.62l-13,44.13-19.68.18c-10.81.09-19.93-.09-20.24-.41s2.82-12.12,7.36-27.57c4.37-14.85,8-27.5,8-28.11,0-1-.84-1.08-7.41-.92l-7.41.19-8.24,27.69c-4.52,15.24-8.47,28.06-8.76,28.49-.6.89-39,1.18-39.53.3Zm119.21-29.18c-2.79-2.2-2.8-4.65,0-14.84,1.92-7,2.91-9.59,4.29-11a6,6,0,0,1,10.15,3c.64,3.44-4.09,20-6.38,22.32a5.92,5.92,0,0,1-8,.46Z"/><path id="path2989-1" class="cls-6" d="M203.24,210.9c-6.31,0-10,.49-14.06,4.75-5.92,6.2-7.31,16.48-5.07,23.69,3.15,8.23,12.09,11,16,12.75-9.68-7.83-6.18-23.64,3.92-31.07h8.24c18.52,0,17.35-1.72,17.61,11.12h.08c.36-18.13.05-20.83-16.18-21.19-4.24.08-7.65,0-10.52,0Zm31.95,36.17c-1.87,11.78-9.05,13.13-22.94,13.09H170.49l-3.88,13.09h43c15.6-.34,23.27-13.1,25.59-26.18Z"/></g><path id="path2987-2" data-name="path2987" class="cls-7" d="M28.25,288.27C28,287.8,57.67,185.28,58.46,184c.51-.82,39.62-.82,40.13,0,.21.34-4.23,16.42-9.85,35.73s-10.09,35.48-9.92,35.93c.45,1.16,13.12,1.17,14,0s25.26-85.5,24.85-86.18c-.22-.34-11.84-.59-27.3-.59-14.81,0-27.07-.24-27.25-.53S68.65,148,75.78,123.75l13-44.1,47.7-.17c26.24-.09,47.92.06,48.2.33s-7.5,27.91-17.26,61.42l-30,103.08c-6.76,23.18-12.54,42.67-12.87,43.3-.55,1.09-3.52,1.16-48.27,1.16-26.23,0-47.83-.23-48-.5ZM127.74,135.8c.74-1,6.77-21.57,6.77-23.14,0-.91-1-1.07-6.84-1.07-4.69,0-7,.26-7.46.83-.74,1-6.78,21.59-6.78,23.13,0,.92,1,1.07,6.84,1.07,4.69,0,7-.26,7.47-.82Zm42.12,32.61c-.16-.28,5.54-20.36,12.68-44.63l13-44.13,19.67-.17c10.82-.1,19.93.08,20.25.4s-2.82,12.13-7.37,27.57c-4.36,14.85-7.94,27.5-7.94,28.11,0,1,.83,1.08,7.41.92l7.41-.19,8.23-27.69c4.53-15.24,8.48-28,8.77-28.49.6-.89,39-1.18,39.53-.3.16.28-5.54,20.36-12.68,44.63l-13,44.13-47.83.17c-26.31.09-48-.06-48.13-.33Zm105.38,0c-.16-.27,5.54-20.35,12.68-44.62l13-44.13,47.67-.17c26.22-.09,47.88.06,48.14.33s-5.38,20.36-12.52,44.63l-13,44.13-19.67.17c-10.82.1-19.93-.08-20.25-.4s2.82-12.13,7.37-27.58c4.36-14.84,7.94-27.49,7.94-28.1,0-1-.83-1.09-7.41-.92l-7.41.18-8.23,27.7c-4.53,15.23-8.48,28-8.77,28.48-.6.9-39,1.19-39.53.3Zm119.21-29.17c-2.79-2.2-2.8-4.65,0-14.84,1.91-7,2.9-9.59,4.28-11a6,6,0,0,1,10.15,3c.64,3.43-4.09,20-6.37,22.31a5.94,5.94,0,0,1-8,.47Z"/><path id="path2989-1-2" data-name="path2989-1" class="cls-7" d="M185.35,178.46c-6.3,0-10,.49-14.06,4.76-5.92,6.2-7.31,16.47-5.06,23.68,3.14,8.23,12.08,11,16,12.75-9.68-7.82-6.18-23.64,3.92-31.06h8.24c18.52,0,17.35-1.73,17.61,11.12h.08c.36-18.14,0-20.84-16.18-21.2-4.23.08-7.65,0-10.52,0Zm32,36.18c-1.86,11.77-9.05,13.13-22.94,13.09H152.6l-3.88,13.09h43c15.61-.34,23.28-13.1,25.59-26.17Z"/></symbol></defs><text class="cls-8" transform="translate(148.52 173.52)">compo<tspan class="cls-9" x="380.73" y="0">n</tspan><tspan x="450.89" y="0">ents</tspan></text><text class="cls-10" transform="translate(141.52 166.52)">compo<tspan class="cls-9" x="380.73" y="0">n</tspan><tspan x="450.89" y="0">ents</tspan></text><use width="694.91" height="495.53" transform="translate(29.38 23.94) scale(0.34)" xlink:href="#logo"/><path class="cls-11" d="M197.06,77.46H826.45a3.52,3.52,0,0,0,3.29-2.71l1-4.86a2.14,2.14,0,0,0-2.14-2.72H199.24A3.54,3.54,0,0,0,196,69.89l-1,4.86A2.13,2.13,0,0,0,197.06,77.46Z"/><path class="cls-12" d="M193.37,72.32h629.4a3.54,3.54,0,0,0,3.29-2.72l1-4.86A2.13,2.13,0,0,0,825,62H195.56a3.53,3.53,0,0,0-3.29,2.71l-1,4.86A2.14,2.14,0,0,0,193.37,72.32Z"/></svg>