<svg xmlns="http://www.w3.org/2000/svg" viewBox="0 0 885.6 216.82"><defs><style>.cls-1,.cls-10,.cls-9{isolation:isolate;}.cls-2{fill:#5c1b4f;}.cls-3{fill:#e23c92;}.cls-4{fill:#43b883;}.cls-5{fill:#256448;}.cls-6{fill:#19222b;}.cls-7{fill:#364a5e;}.cls-8{mix-blend-mode:darken;}.cls-9{fill:#3b0f2f;}.cls-10,.cls-9{opacity:0.95;}.cls-10{fill:#ed3a95;}.cls-11{fill:#371b2a;}</style></defs><g class="cls-1"><g id="Layer_1" data-name="Layer 1"><path class="cls-2" d="M207.82,110.16c-.14.43-.43,2.89-1,7.66s-.87,7.38-1,8.11a25.05,25.05,0,0,0-13.16-3.33c-12.59,0-21.12,8.53-21.12,22.85,0,8.68,5.64,14.47,15.47,14.47a33.82,33.82,0,0,0,16.64-4.49l-2.17,15.34c-5.35,2.89-12.3,4.34-21,4.34-9.12,0-16.06-2.61-21.12-8S152,154.86,152,146.61c0-12,3.76-21.7,11.43-28.79s17.07-10.7,28.35-10.7Q201.54,107.12,207.82,110.16Z"/><path class="cls-2" d="M276.25,135.62c0,11.28-3.62,20.68-11,28.2s-16.63,11.29-28.06,11.29c-19.53,0-30.67-11.29-30.67-28.5,0-11.14,3.62-20.4,11-28.06s16.92-11.43,28.49-11.43C265.25,107.12,276.25,118.4,276.25,135.62Zm-45.14-6.37A25.15,25.15,0,0,0,226.05,145c0,8.82,4.49,14.61,13,14.61a16.64,16.64,0,0,0,13.31-6.37,23.5,23.5,0,0,0,5.35-15.62c0-8.82-4.77-14.9-13.31-14.9A16,16,0,0,0,231.11,129.25Z"/><path class="cls-2" d="M301.85,118l.58.29c6.22-7.38,13.45-11.14,21.7-11.14,9.54,0,15.48,4.2,17.93,12.59,5.94-8.39,13.46-12.59,22.43-12.59,12.87,0,19.81,7.09,19.81,19.24a59,59,0,0,1-.86,8.53c-.73,4.78-1.74,11.43-2.9,20.26l-2.46,18.37H359c.72-4.34,1.59-10.71,2.75-19.1l2.6-18.8c0-.73.15-2.17.15-2.61,0-6.8-2.75-10.12-8.25-10.12-8.24,0-13.16,6.8-15,20.25L337,173.52H317.91l5.21-37.32c1.3-8.83-1.31-13.31-7.67-13.31-8.68,0-13.89,6.8-15.77,20.54l-3.9,30.09h-19.1l9-64.37h15.19Z"/><path class="cls-2" d="M411.79,117.54c5.5-6.8,13.16-10.13,23-10.13,8.53,0,14.9,2.6,19.24,8q6.51,7.8,6.51,19.52c0,12.3-3.48,22-10.27,29.22A33.15,33.15,0,0,1,425.1,175c-8.83,0-15.05-2.6-18.66-8-.15,0-.73.29-.87.29l-5.35,37.46H381.56l13.3-95.61h15.63c.14,1.88.29,4.62.72,8.24C411.5,117.39,411.64,117.39,411.79,117.54Zm3.47,11.71c-3.62,4.2-5.35,9.55-5.35,16.06,0,8.82,4.77,14.75,13.45,14.75a16.26,16.26,0,0,0,13.31-6.36,25.09,25.09,0,0,0,5.06-15.77c0-9.11-4.63-15-13.16-15A16.87,16.87,0,0,0,415.26,129.25Z"/><path class="cls-2" d="M531.71,135.62c0,11.28-3.62,20.68-11,28.2s-16.63,11.29-28.06,11.29c-19.53,0-30.67-11.29-30.67-28.5,0-11.14,3.62-20.4,11-28.06s16.92-11.43,28.49-11.43C520.71,107.12,531.71,118.4,531.71,135.62Zm-45.14-6.37A25.15,25.15,0,0,0,481.51,145c0,8.82,4.49,14.61,13,14.61a16.64,16.64,0,0,0,13.31-6.37,23.55,23.55,0,0,0,5.35-15.62c0-8.82-4.77-14.9-13.31-14.9A16,16,0,0,0,486.57,129.25Z"/><path class="cls-2" d="M594.78,173.52h-19.1l5.06-36.31a18.76,18.76,0,0,0,.15-3.18c0-6.22-2.61-11.14-8.54-11.14-8.53,0-15,7.81-16.78,20.39l-4.34,30.24H532.14l9-64.37h15.33l.87,9.69h.43a29.62,29.62,0,0,1,23.87-11.29c12.73,0,19.24,7,19.24,19.1,0,2.75-.14,4.92-.29,6.51Z"/><path class="cls-2" d="M665.37,126.21c0,6.8-3.33,12.3-10.13,16.21s-15,5.93-25,5.93a74.49,74.49,0,0,1-7.81-.44c-1.88,9.26,4.34,13.46,14.61,13.46a39.89,39.89,0,0,0,24-8c-1,6.51-1.59,11.43-2,14.75-7.37,4.49-16.34,6.8-26.76,6.8-19.82,0-29.36-11.57-29.36-27.92A40.9,40.9,0,0,1,613.29,119c7-8,16.06-11.86,27.49-11.86C655.82,107.12,665.37,115.08,665.37,126.21ZM623,137.79a21.17,21.17,0,0,0,4.92.43,36.55,36.55,0,0,0,13.46-2.31c4.19-1.59,6.22-4.2,6.22-7.53,0-4-2.75-7.08-8.39-7.08C630.94,121.3,624.72,127.81,623,137.79Z"/><path class="cls-2" d="M727.86,173.52h-19.1l5.07-36.31A20.08,20.08,0,0,0,714,134c0-6.22-2.6-11.14-8.53-11.14-8.54,0-15.05,7.81-16.78,20.39l-4.34,30.24h-19.1l9-64.37h15.34l.86,9.69h.44a29.6,29.6,0,0,1,23.86-11.29c12.73,0,19.24,7,19.24,19.1,0,2.75-.14,4.92-.29,6.51Z"/><path class="cls-2" d="M768.51,88h3.33c-.29,2.46-.73,5.93-1.45,10.7s-1.16,8.1-1.45,10.42h16.78l-1,6.36c-.58,3.62-1,6.22-1.16,8.1H766.77l-3.61,25.6c-1,7.09,1.15,10.56,6.79,10.56,3,0,6.8-1.3,11.29-3.76-1,7-1.74,11.86-2,14.61A32.85,32.85,0,0,1,762,175.11c-14,0-20.11-8-17.94-23.87l3.76-27.63h-9.69l1.59-10.85,12.88-6.07Z"/><path class="cls-2" d="M778.2,161.94l.87-7.52a30.68,30.68,0,0,0,21,7.67c5.93,0,10.42-2.46,10.42-7.52,0-3.91-6.51-7.67-13-10.56s-12.88-9.12-12.88-16.64c0-12.58,10.85-20.11,26.33-20.11a47.42,47.42,0,0,1,20.25,4.49l-1.88,14c-5.35-3.33-10.7-5.06-16-5.06q-9.56,0-9.55,6.51c0,7.66,25.17,9.11,25.17,26.9,0,12.59-10.85,20.83-28.64,20.83-9.26,0-16.93-1.88-22.86-5.49Z"/><path class="cls-3" d="M200.82,103.16c-.14.43-.43,2.89-1,7.66s-.87,7.38-1,8.11a25.05,25.05,0,0,0-13.16-3.33c-12.59,0-21.12,8.53-21.12,22.85,0,8.68,5.64,14.47,15.47,14.47a33.82,33.82,0,0,0,16.64-4.49l-2.17,15.34c-5.35,2.89-12.3,4.34-21,4.34-9.12,0-16.06-2.61-21.12-8S145,147.86,145,139.61c0-12,3.76-21.7,11.43-28.79s17.07-10.7,28.35-10.7Q194.54,100.12,200.82,103.16Z"/><path class="cls-3" d="M269.25,128.62c0,11.28-3.62,20.68-11,28.2-7.23,7.53-16.63,11.29-28.06,11.29-19.53,0-30.67-11.29-30.67-28.5,0-11.14,3.62-20.4,11-28.06s16.92-11.43,28.49-11.43C258.25,100.12,269.25,111.4,269.25,128.62Zm-45.14-6.37A25.15,25.15,0,0,0,219.05,138c0,8.82,4.49,14.61,13,14.61a16.64,16.64,0,0,0,13.31-6.37,23.5,23.5,0,0,0,5.35-15.62c0-8.82-4.77-14.9-13.31-14.9A16,16,0,0,0,224.11,122.25Z"/><path class="cls-3" d="M294.85,111l.58.29c6.22-7.38,13.45-11.14,21.7-11.14,9.54,0,15.48,4.2,17.93,12.59,5.94-8.39,13.46-12.59,22.43-12.59,12.87,0,19.81,7.09,19.81,19.24a59,59,0,0,1-.86,8.53c-.73,4.78-1.74,11.43-2.9,20.26l-2.46,18.37H352c.72-4.34,1.59-10.71,2.75-19.1l2.6-18.8c0-.73.15-2.17.15-2.61,0-6.8-2.75-10.12-8.25-10.12-8.24,0-13.16,6.8-15,20.25L330,166.52H310.91l5.21-37.32c1.3-8.83-1.31-13.31-7.67-13.31-8.68,0-13.89,6.8-15.77,20.54l-3.9,30.09h-19.1l9-64.37h15.19Z"/><path class="cls-3" d="M404.79,110.54c5.5-6.8,13.16-10.13,23-10.13,8.53,0,14.9,2.6,19.24,8q6.51,7.8,6.51,19.52c0,12.3-3.48,22-10.27,29.22A33.15,33.15,0,0,1,418.1,168c-8.83,0-15.05-2.6-18.66-8-.15,0-.73.29-.87.29l-5.35,37.46H374.56l13.3-95.61h15.63c.14,1.88.29,4.62.72,8.24C404.5,110.39,404.64,110.39,404.79,110.54Zm3.47,11.71c-3.62,4.2-5.35,9.55-5.35,16.06,0,8.82,4.77,14.75,13.45,14.75a16.26,16.26,0,0,0,13.31-6.36,25.09,25.09,0,0,0,5.06-15.77c0-9.11-4.63-15-13.16-15A16.87,16.87,0,0,0,408.26,122.25Z"/><path class="cls-3" d="M524.71,128.62c0,11.28-3.62,20.68-11,28.2s-16.63,11.29-28.06,11.29c-19.53,0-30.67-11.29-30.67-28.5,0-11.14,3.62-20.4,11-28.06s16.92-11.43,28.49-11.43C513.71,100.12,524.71,111.4,524.71,128.62Zm-45.14-6.37A25.15,25.15,0,0,0,474.51,138c0,8.82,4.49,14.61,13,14.61a16.64,16.64,0,0,0,13.31-6.37,23.55,23.55,0,0,0,5.35-15.62c0-8.82-4.77-14.9-13.31-14.9A16,16,0,0,0,479.57,122.25Z"/><path class="cls-3" d="M587.78,166.52h-19.1l5.06-36.31a18.76,18.76,0,0,0,.15-3.18c0-6.22-2.61-11.14-8.54-11.14-8.53,0-15,7.81-16.78,20.39l-4.34,30.24H525.14l9-64.37h15.33l.87,9.69h.43a29.62,29.62,0,0,1,23.87-11.29c12.73,0,19.24,7,19.24,19.1,0,2.75-.14,4.92-.29,6.51Z"/><path class="cls-3" d="M658.37,119.21c0,6.8-3.33,12.3-10.13,16.21s-15,5.93-25,5.93a74.49,74.49,0,0,1-7.81-.44c-1.88,9.26,4.34,13.46,14.61,13.46a39.89,39.89,0,0,0,24-8c-1,6.51-1.59,11.43-2,14.75-7.37,4.49-16.34,6.8-26.76,6.8-19.82,0-29.36-11.57-29.36-27.92A40.9,40.9,0,0,1,606.29,112c7-8,16.06-11.86,27.49-11.86C648.82,100.12,658.37,108.08,658.37,119.21ZM616,130.79a21.17,21.17,0,0,0,4.92.43,36.55,36.55,0,0,0,13.46-2.31c4.19-1.59,6.22-4.2,6.22-7.53,0-4-2.75-7.08-8.39-7.08C623.94,114.3,617.72,120.81,616,130.79Z"/><path class="cls-3" d="M720.86,166.52h-19.1l5.07-36.31A20.08,20.08,0,0,0,707,127c0-6.22-2.6-11.14-8.53-11.14-8.54,0-15.05,7.81-16.78,20.39l-4.34,30.24h-19.1l9-64.37h15.34l.86,9.69h.44a29.6,29.6,0,0,1,23.86-11.29c12.73,0,19.24,7,19.24,19.1,0,2.75-.14,4.92-.29,6.51Z"/><path class="cls-3" d="M761.51,81h3.33c-.29,2.46-.73,5.93-1.45,10.7s-1.16,8.1-1.45,10.42h16.78l-1,6.36c-.58,3.62-1,6.22-1.16,8.1H759.77l-3.61,25.6c-1,7.09,1.15,10.56,6.79,10.56,3,0,6.8-1.3,11.29-3.76-1,7-1.74,11.86-2,14.61A32.85,32.85,0,0,1,755,168.11c-14,0-20.11-8-17.94-23.87l3.76-27.63h-9.69l1.59-10.85,12.88-6.07Z"/><path class="cls-3" d="M771.2,154.94l.87-7.52a30.68,30.68,0,0,0,21,7.67c5.93,0,10.42-2.46,10.42-7.52,0-3.91-6.51-7.67-13-10.56s-12.88-9.12-12.88-16.64c0-12.58,10.85-20.11,26.33-20.11a47.42,47.42,0,0,1,20.25,4.49l-1.88,14c-5.35-3.33-10.7-5.06-16-5.06q-9.56,0-9.55,6.51c0,7.66,25.17,9.11,25.17,26.9,0,12.59-10.85,20.83-28.64,20.83-9.26,0-16.93-1.88-22.86-5.49Z"/><g id="logo-5" data-name="logo"><path class="cls-4" d="M229.08,32.39h37.21L33.75,192.88,80.22,32.39h71.17L140.91,69.61l53.74-37.22Z"/><path class="cls-5" d="M80.22,32.39,33.75,192.88,266.29,32.39H229.08L89.55,128.68,117,32.39Z"/><path class="cls-6" d="M117,32.39,89.15,129.15,229.08,32.39H194.65L140.91,69.61l10.48-37.22Z"/><path class="cls-4" d="M224.71,23.94h37.21L29.38,184.42,75.85,23.94H147L136.54,61.15l53.74-37.21Z"/><path class="cls-4" d="M75.85,23.94,29.38,184.42,261.92,23.94H224.71L85.18,120.23,112.6,23.94Z"/><path class="cls-7" d="M112.6,23.94,84.78,120.7,224.71,23.94H190.28L136.54,61.15,147,23.94Z"/><g class="cls-8"><path id="path2987" class="cls-9" d="M45.11,133.28c-.1-.16,10-35.12,10.3-35.55s13.5-.28,13.68,0c.07.11-1.44,5.59-3.36,12.18S62.29,122,62.35,122.16c.15.39,4.47.4,4.77,0S75.74,93,75.59,92.78s-4-.2-9.3-.2c-5.05,0-9.23-.08-9.29-.18s1.88-6.94,4.31-15.21l4.43-15L82,62.09c8.94,0,16.34,0,16.43.12s-2.55,9.51-5.88,20.94-7.94,27.23-10.24,35.14S78,132.84,77.93,133.05c-.19.37-1.21.39-16.46.39-8.95,0-16.31-.07-16.36-.16ZM79,81.29a74.7,74.7,0,0,0,2.3-7.89c0-.31-.33-.36-2.33-.36-1.6,0-2.39.09-2.54.28a76.86,76.86,0,0,0-2.31,7.89c0,.31.33.37,2.33.37,1.6,0,2.4-.09,2.55-.29ZM93.39,92.41c-.06-.09,1.88-6.94,4.32-15.21l4.42-15.05,6.71-.06a63.33,63.33,0,0,1,6.9.14,92.37,92.37,0,0,1-2.51,9.4c-1.49,5.06-2.71,9.37-2.71,9.58s.29.37,2.53.32l2.53-.07,2.8-9.44c1.55-5.19,2.89-9.56,3-9.71.21-.31,13.3-.4,13.48-.1.05.09-1.89,6.94-4.33,15.21l-4.42,15-16.31,0c-9,0-16.35,0-16.4-.11Zm35.92,0c-.05-.09,1.89-6.94,4.33-15.21l4.42-15.05,16.25-.06c8.94,0,16.33,0,16.41.12s-1.83,6.94-4.27,15.21l-4.42,15-6.71,0a61.93,61.93,0,0,1-6.9-.13,91.6,91.6,0,0,1,2.51-9.4c1.49-5.07,2.71-9.38,2.71-9.58s-.29-.38-2.53-.32l-2.53.06-2.8,9.45c-1.55,5.19-2.89,9.56-3,9.71s-13.3.4-13.48.1Zm40.64-10c-.95-.75-.95-1.58,0-5.06.65-2.4,1-3.27,1.46-3.74a2,2,0,0,1,3.46,1c.21,1.17-1.4,6.82-2.18,7.6a2,2,0,0,1-2.74.16Z"/><path id="path2989-1" class="cls-9" d="M98.67,95.84c-2.15,0-3.41.17-4.8,1.62a8.64,8.64,0,0,0-1.72,8.08c1.07,2.8,4.12,3.74,5.44,4.34-3.3-2.67-2.1-8.06,1.34-10.59h2.81c6.31,0,5.91-.59,6,3.79h0c.12-6.18,0-7.1-5.52-7.22-1.44,0-2.6,0-3.58,0Zm10.89,12.33c-.64,4-3.09,4.48-7.82,4.46H87.5l-1.32,4.47h14.65c5.32-.12,7.94-4.47,8.73-8.93Z"/></g><path id="path2987-2" data-name="path2987" class="cls-10" d="M39,122.22c-.1-.16,10-35.11,10.3-35.55.17-.28,13.5-.28,13.68,0,.07.12-1.44,5.6-3.36,12.18S56.19,111,56.25,111.1c.15.4,4.47.4,4.77,0S69.64,82,69.5,81.72s-4-.2-9.31-.2c-5,0-9.23-.08-9.29-.18s1.88-6.94,4.31-15.21l4.43-15L75.9,51c8.94,0,16.34,0,16.43.11s-2.55,9.52-5.88,20.94L76.21,107.23c-2.3,7.9-4.27,14.55-4.38,14.76-.19.37-1.2.4-16.46.4-8.94,0-16.31-.08-16.36-.17Zm33.92-52a76.11,76.11,0,0,0,2.3-7.89c0-.31-.33-.37-2.33-.37-1.6,0-2.39.09-2.54.29a76.67,76.67,0,0,0-2.31,7.88c0,.32.33.37,2.33.37,1.6,0,2.4-.09,2.55-.28ZM87.29,81.35c-.06-.09,1.89-6.94,4.32-15.21l4.43-15,6.7-.06a63.7,63.7,0,0,1,6.91.14,96.78,96.78,0,0,1-2.52,9.4c-1.49,5.06-2.7,9.38-2.7,9.58s.28.37,2.52.32l2.53-.07,2.8-9.44c1.55-5.19,2.89-9.56,3-9.71s13.3-.4,13.48-.1c.06.09-1.89,6.94-4.32,15.21l-4.43,15-16.31.06c-9,0-16.35,0-16.4-.12Zm35.92,0c0-.09,1.89-6.94,4.33-15.21l4.42-15L148.21,51c8.94,0,16.33,0,16.42.11s-1.84,6.94-4.27,15.21l-4.43,15-6.71.06a63.45,63.45,0,0,1-6.9-.14,95.66,95.66,0,0,1,2.51-9.4c1.49-5.06,2.71-9.38,2.71-9.58S147.25,62,145,62l-2.52.07-2.81,9.44c-1.54,5.19-2.89,9.56-3,9.71s-13.3.4-13.48.1Zm40.65-9.94c-1-.75-1-1.59,0-5.06.65-2.41,1-3.27,1.46-3.75a2,2,0,0,1,3.46,1c.22,1.17-1.4,6.82-2.17,7.61a2,2,0,0,1-2.74.16Z"/><path id="path2989-1-2" data-name="path2989-1" class="cls-10" d="M92.57,84.78c-2.15,0-3.41.17-4.79,1.62a8.65,8.65,0,0,0-1.73,8.08c1.07,2.8,4.12,3.74,5.45,4.34-3.31-2.66-2.11-8.06,1.33-10.59h2.81c6.31,0,5.92-.58,6,3.79h0c.12-6.18,0-7.1-5.51-7.22-1.45,0-2.61,0-3.59,0Zm10.89,12.33c-.63,4-3.09,4.48-7.82,4.47H81.4L80.08,106H94.74c5.32-.12,7.93-4.47,8.72-8.93Z"/></g><path class="cls-11" d="M197.06,77.46H826.45a3.52,3.52,0,0,0,3.29-2.71l1-4.86a2.14,2.14,0,0,0-2.14-2.72H199.24A3.54,3.54,0,0,0,196,69.89l-1,4.86A2.13,2.13,0,0,0,197.06,77.46Z"/><path class="cls-3" d="M193.37,72.32h629.4a3.54,3.54,0,0,0,3.29-2.72l1-4.86A2.13,2.13,0,0,0,825,62H195.56a3.53,3.53,0,0,0-3.29,2.71l-1,4.86A2.14,2.14,0,0,0,193.37,72.32Z"/></g></g></svg>