<svg xmlns="http://www.w3.org/2000/svg" viewBox="0 0 722.95 554.69"><defs><style>.cls-1,.cls-7,.cls-8{isolation:isolate;}.cls-2{fill:#43b883;}.cls-3{fill:#256448;}.cls-4{fill:#19222b;}.cls-5{fill:#364a5e;}.cls-6{mix-blend-mode:darken;}.cls-7{fill:#3b0f2f;}.cls-7,.cls-8{opacity:0.95;}.cls-8{fill:#ed3a95;}</style></defs><g class="cls-1"><g id="Layer_1" data-name="Layer 1"><path class="cls-2" d="M601,52.32H710.19L28.1,523.06,164.41,52.32H373.17L342.41,161.48,500.06,52.32Z"/><path class="cls-3" d="M164.41,52.32,28.1,523.06,710.19,52.32H601L191.78,334.76,272.2,52.32Z"/><path class="cls-4" d="M272.2,52.32,190.59,336.13,601,52.32h-101L342.41,161.48,373.17,52.32Z"/><path class="cls-2" d="M588.21,27.53H697.37L15.28,498.26,151.59,27.53H360.35L329.59,136.69,487.25,27.53Z"/><path class="cls-2" d="M151.59,27.53,15.28,498.26,697.37,27.53H588.21L179,310,259.38,27.53Z"/><path class="cls-5" d="M259.38,27.53l-81.61,283.8L588.21,27.53h-101L329.59,136.69,360.35,27.53Z"/><g class="cls-6"><path id="path2987" class="cls-7" d="M61.42,348.24c-.28-.48,29.42-103,30.21-104.27.5-.82,39.61-.83,40.12,0,.21.34-4.22,16.41-9.85,35.72s-10.09,35.48-9.91,35.94c.44,1.16,13.11,1.16,14,0s25.27-85.5,24.85-86.18c-.21-.34-11.84-.6-27.29-.6-14.81,0-27.08-.24-27.25-.52S101.81,208,109,183.71l13-44.09,47.7-.17c26.24-.1,47.93.05,48.2.33s-7.49,27.91-17.25,61.42-23.28,79.89-30,103.07S158,347,157.68,347.58c-.55,1.08-3.52,1.15-48.28,1.15-26.23,0-47.82-.22-48-.49Zm99.49-152.48c.74-.95,6.76-21.56,6.76-23.14,0-.91-1-1.06-6.83-1.06-4.7,0-7,.26-7.46.82-.74,1-6.78,21.59-6.78,23.14,0,.92,1,1.07,6.83,1.07,4.69,0,7-.26,7.48-.83ZM203,228.37c-.16-.27,5.55-20.36,12.69-44.63l13-44.12,19.67-.18c10.82-.1,19.93.09,20.25.4s-2.83,12.13-7.37,27.58c-4.37,14.85-7.94,27.49-7.94,28.1,0,1,.83,1.09,7.41.92l7.41-.18,8.23-27.7c4.53-15.23,8.47-28.05,8.76-28.48.61-.9,39-1.18,39.54-.3.16.27-5.55,20.35-12.69,44.62l-13,44.13-47.83.17c-26.3.09-48-.06-48.13-.33Zm105.38,0c-.16-.28,5.55-20.36,12.69-44.63l13-44.12,47.67-.17c26.22-.1,47.88.05,48.13.33s-5.37,20.35-12.52,44.62l-13,44.13-19.67.18c-10.82.09-19.93-.09-20.25-.41s2.83-12.12,7.37-27.57c4.37-14.85,7.94-27.5,7.94-28.11,0-1-.83-1.08-7.41-.92l-7.41.19-8.23,27.69c-4.53,15.24-8.47,28.06-8.76,28.49-.61.89-39,1.18-39.54.3Zm119.22-29.18c-2.8-2.2-2.8-4.65,0-14.84,1.92-7,2.91-9.59,4.28-11a6,6,0,0,1,10.15,3c.65,3.44-4.08,20-6.37,22.32a5.92,5.92,0,0,1-8,.46Z"/><path id="path2989-1" class="cls-7" d="M218.52,238.43c-6.31,0-10,.49-14.06,4.75-5.93,6.2-7.31,16.48-5.07,23.69,3.15,8.23,12.08,11,16,12.75-9.69-7.83-6.18-23.64,3.92-31.07h8.23c18.52,0,17.36-1.72,17.61,11.12h.09c.35-18.13.05-20.83-16.18-21.19-4.24.08-7.65,0-10.52,0Zm31.95,36.17c-1.87,11.78-9.06,13.13-22.95,13.09H185.76l-3.88,13.09h43c15.61-.34,23.28-13.1,25.6-26.18Z"/></g><path id="path2987-2" data-name="path2987" class="cls-8" d="M43.53,315.8c-.28-.47,29.42-103,30.21-104.27.51-.82,39.62-.82,40.12,0,.21.34-4.22,16.42-9.85,35.73s-10.08,35.48-9.91,35.93c.45,1.16,13.11,1.17,14,0S133.37,197.7,133,197c-.21-.34-11.83-.59-27.29-.59-14.81,0-27.07-.24-27.25-.53s5.51-20.37,12.65-44.62l13-44.1,47.71-.17c26.23-.09,47.92.06,48.19.33s-7.49,27.91-17.25,61.42-23.28,79.89-30,103.08-12.54,42.67-12.86,43.3c-.55,1.09-3.52,1.16-48.28,1.16-26.23,0-47.82-.23-48-.5ZM143,163.33c.74-1,6.77-21.57,6.77-23.14,0-.91-1-1.07-6.84-1.07-4.69,0-7,.26-7.46.83-.74,1-6.78,21.59-6.78,23.13,0,.92,1,1.07,6.84,1.07,4.68,0,7-.26,7.47-.82Zm42.12,32.61c-.17-.28,5.54-20.36,12.68-44.63l13-44.13,19.67-.17c10.82-.1,19.93.08,20.25.4s-2.82,12.12-7.37,27.57c-4.37,14.85-7.94,27.5-7.94,28.11,0,1,.83,1.08,7.41.92l7.41-.19,8.23-27.69c4.53-15.24,8.47-28,8.77-28.49.6-.89,39-1.18,39.53-.3.16.28-5.55,20.36-12.69,44.63l-13,44.13-47.83.16c-26.3.1-48,0-48.12-.32Zm105.38,0c-.17-.27,5.54-20.35,12.68-44.62l13-44.13,47.67-.17c26.22-.09,47.88.06,48.14.33S406.61,127.7,399.47,152l-13,44.13-19.68.17c-10.81.1-19.93-.08-20.24-.4s2.82-12.13,7.36-27.58c4.37-14.85,7.95-27.49,7.95-28.1,0-1-.84-1.09-7.41-.92l-7.41.18-8.24,27.7c-4.52,15.23-8.47,28-8.76,28.48-.6.9-39,1.19-39.53.3Zm119.21-29.17c-2.79-2.2-2.8-4.65,0-14.84,1.92-7,2.91-9.59,4.29-11a6,6,0,0,1,10.15,3c.64,3.43-4.09,20-6.38,22.31a5.92,5.92,0,0,1-8,.47Z"/><path id="path2989-1-2" data-name="path2989-1" class="cls-8" d="M200.63,206c-6.31,0-10,.49-14.06,4.76-5.92,6.2-7.31,16.47-5.07,23.68,3.15,8.23,12.09,11,16,12.75-9.68-7.82-6.18-23.64,3.92-31.06h8.24c18.52,0,17.35-1.73,17.61,11.12h.08c.36-18.14,0-20.84-16.18-21.2-4.24.08-7.65,0-10.52,0Zm32,36.18c-1.87,11.77-9.05,13.13-22.94,13.09H167.88L164,268.34h43c15.6-.34,23.27-13.1,25.59-26.17Z"/></g></g></svg>