<svg id="Layer_1" data-name="Layer 1" xmlns="http://www.w3.org/2000/svg" viewBox="0 0 722 404"><defs><style>.cls-1{fill:#fff;opacity:1;isolation:isolate;}</style></defs><title>gun_logo_white</title><path id="path2987" class="cls-1" d="M8.47,395.09C7.95,394.21,63,204.33,64.42,202c0.94-1.53,73.38-1.53,74.32,0,0.39,0.63-7.82,30.4-18.24,66.17s-18.69,65.72-18.36,66.56c0.82,2.15,24.29,2.16,25.94,0,1.82-2.37,46.8-158.36,46-159.61-0.39-.64-21.93-1.11-50.56-1.11-27.43,0-50.14-.44-50.47-1S83.29,135.28,96.5,90.36l24-81.68,88.35-.31c48.59-.17,88.77.1,89.27,0.61s-13.88,51.7-32,113.76-43.11,148-55.61,190.92-23.23,79-23.82,80.21c-1,2-6.52,2.13-89.42,2.13-48.58,0-88.57-.41-88.87-0.91h0ZM192.74,112.68c1.37-1.77,12.54-39.94,12.54-42.87,0-1.68-1.83-2-12.66-2-8.7,0-13,.48-13.82,1.52-1.37,1.81-12.56,40-12.56,42.85,0,1.7,1.8,2,12.66,2,8.68,0,13-.48,13.84-1.52h0Zm78,60.39c-0.3-.51,10.27-37.7,23.49-82.66l24-81.73,36.43-.32c20-.18,36.92.16,37.5,0.74S387,31.57,378.58,60.18c-8.09,27.5-14.71,50.93-14.71,52.06,0,1.82,1.54,2,13.72,1.71l13.72-.34,15.25-51.3c8.39-28.21,15.69-52,16.24-52.76C423.91,7.88,495,7.35,496,9c0.3,0.5-10.27,37.7-23.5,82.65l-24,81.73-88.59.31c-48.72.17-88.84-.1-89.14-0.61h0Zm195.18,0c-0.3-.5,10.27-37.7,23.5-82.65l24-81.73,88.29-.31c48.56-.17,88.68.1,89.16,0.61s-10,37.7-23.19,82.66l-24.06,81.73-36.43.32c-20,.18-36.92-0.16-37.5-0.74s5.23-22.46,13.64-51.07c8.09-27.5,14.71-50.93,14.71-52.06,0-1.82-1.54-2-13.72-1.71l-13.72.35-15.25,51.3c-8.39,28.21-15.69,52-16.24,52.76-1.12,1.65-72.24,2.19-73.22.55h0Zm220.81-54c-5.18-4.07-5.19-8.62-.05-27.49,3.55-13.06,5.39-17.76,7.93-20.34a11.12,11.12,0,0,1,18.8,5.64c1.19,6.36-7.57,37-11.8,41.33a11,11,0,0,1-14.88.86h0Z"/><path id="path2989-1" class="cls-1" d="M299.45,191.7c-11.68,0-18.5.9-26,8.8C262.44,212,259.87,231,264,244.38c5.83,15.24,22.38,20.32,29.59,23.62-17.94-14.49-11.44-43.79,7.26-57.54h15.26c34.3,0,32.14-3.19,32.61,20.6h0.16c0.66-33.59.09-38.59-30-39.26-7.85.15-14.17-.08-19.48-0.09h0Zm59.17,67c-3.45,21.81-16.77,24.32-42.49,24.25H238.78l-7.19,24.25h79.63c28.91-.62,43.12-24.25,47.4-48.48h0Z"/></svg>